<svg width="180" height="196" viewBox="0 0 180 196" fill="none" xmlns="http://www.w3.org/2000/svg">
<path d="M52.4219 114.781C53.0097 114.781 53.5678 114.431 53.801 113.85C59.5432 99.6946 57.4745 92.03 51.963 83.5742C47.8504 77.264 48.9567 73.2853 50.1299 69.0736C50.378 68.1781 50.6359 67.2554 50.8368 66.3178C52.0895 60.4763 48.2299 55.8925 48.0662 55.699C47.5304 55.0739 46.5928 55.002 45.9677 55.5378C45.3451 56.0711 45.2707 57.0087 45.804 57.6313C45.8338 57.6685 48.8649 61.3172 47.9273 65.6927C47.7462 66.541 47.5106 67.3819 47.2625 68.2724C46.0248 72.7198 44.6208 77.7601 49.4701 85.1964C54.5625 93.0098 56.3211 99.7119 51.0427 112.729C50.7327 113.491 51.0998 114.359 51.8638 114.667C52.0473 114.741 52.2358 114.776 52.4219 114.776V114.781Z" fill="#1D1D1B"/>
<path d="M73.8831 119.59C74.089 119.59 74.2973 119.548 74.4958 119.457C75.2449 119.117 75.5772 118.236 75.2374 117.487C71.0579 108.267 74.2676 106.298 79.1268 103.311C84.0902 100.263 84.4548 96.19 84.745 92.9158C84.802 92.2908 84.8541 91.7004 84.9335 91.1374C85.308 88.523 87.729 87.7119 87.8331 87.6772C88.6194 87.439 89.056 86.6081 88.8179 85.8218C88.5797 85.0355 87.7414 84.594 86.9551 84.8321C86.7789 84.8866 82.6316 86.1963 81.9867 90.7157C81.8949 91.3581 81.8354 92.0154 81.7808 92.6504C81.5006 95.7931 81.2575 98.5092 77.5691 100.774C75.1258 102.275 72.3576 103.974 71.0802 106.843C69.7507 109.83 70.2095 113.6 72.5263 118.715C72.7743 119.263 73.3176 119.588 73.8831 119.588V119.59Z" fill="#1D1D1B"/>
<path d="M75.3976 164.323C64.6375 182.956 71.8754 200.686 81.8245 207.391C84.5306 209.214 95.1346 213.408 95.1346 213.408C95.1346 213.408 101.891 218.054 115.63 219.317C125.649 220.237 134.951 216.405 143.503 207.594C153.395 197.402 160.202 168.22 134.953 151.561C113.909 137.678 87.1946 143.899 75.4001 164.325L75.3976 164.323Z" fill="#E62B29"/>
<path d="M84.462 163.943C84.8192 163.943 85.1714 163.789 85.417 163.494C91.6627 155.963 100.979 151.818 111.648 151.818C111.665 151.818 111.682 151.818 111.697 151.818C112.382 151.818 112.938 151.265 112.938 150.581C112.938 149.896 112.384 149.34 111.7 149.338H111.65C100.228 149.338 90.2365 153.8 83.5095 161.909C83.073 162.435 83.1449 163.218 83.6732 163.655C83.9039 163.846 84.1842 163.94 84.4645 163.94L84.462 163.943Z" fill="#EB5B5D"/>
<path d="M117.154 220.606C119.56 220.606 122.06 220.41 124.59 219.936C134.041 218.165 141.77 212.981 147.557 204.522C153.634 195.64 155.553 184.939 152.959 174.39C150.225 163.28 142.66 153.718 132.198 148.159C124.111 143.863 114.085 142.067 104.692 143.236C94.5543 144.493 85.7141 149.072 79.8007 156.129C74.185 162.829 70.6776 170.907 69.9235 178.877C69.0554 188.057 71.7963 196.989 77.8461 204.708C78.3496 205.351 79.2748 205.462 79.9173 204.959C80.5572 204.455 80.6713 203.53 80.1678 202.888C67.4431 186.656 72.8033 169.069 82.0604 158.024C94.098 143.662 116.303 143.055 130.814 150.766C140.534 155.931 147.561 164.798 150.094 175.094C152.485 184.818 150.719 194.678 145.121 202.856C132.763 220.913 113.728 218.596 103.479 215.607C90.8287 211.917 85.4784 198.344 86.7335 186.842C87.8076 177.004 94.026 166.152 108.264 165.205C118.754 164.503 128.117 173.584 129.169 181.861C129.849 187.214 126.969 193.172 122.164 196.347C119.532 198.086 114.1 200.405 107.269 196.406C104.779 194.948 103.008 192.477 102.41 189.625C101.872 187.058 102.373 184.471 103.787 182.526C105.558 180.09 107.976 179.068 110.427 179.72C112.624 180.306 114.254 182.124 114.482 184.242C114.569 185.053 115.296 185.639 116.107 185.552C116.918 185.465 117.503 184.738 117.417 183.927C117.059 180.604 114.557 177.768 111.188 176.868C107.549 175.898 103.891 177.364 101.403 180.79C99.5004 183.406 98.8183 186.847 99.5252 190.228C100.292 193.894 102.574 197.074 105.781 198.951C111.776 202.461 118.342 202.407 123.791 198.805C129.588 194.975 132.927 188.015 132.096 181.487C131.468 176.553 128.531 171.57 124.037 167.817C119.304 163.863 113.631 161.891 108.068 162.261C101.088 162.727 95.11 165.49 90.7841 170.253C86.9121 174.517 84.4962 180.142 83.7992 186.524C82.4126 199.249 88.4425 214.298 102.653 218.443C106.394 219.534 111.513 220.608 117.151 220.608L117.154 220.606Z" fill="#1D1D1B"/>
<path fill-rule="evenodd" clip-rule="evenodd" d="M123.096 144.463C119.12 135.715 122.97 124.704 123.657 124.823C124.607 124.989 132.943 127.512 138.448 132.406C145.157 138.371 146.787 147.293 140.335 150.052C131.371 153.881 125.968 150.781 123.096 144.466V144.463Z" fill="#B2CB1D"/>
<path d="M133.184 152.708C135.466 152.708 137.986 152.122 140.722 150.954C143.232 149.883 144.852 147.841 145.281 145.209C145.975 140.941 143.552 135.627 139.102 131.671C133.417 126.619 124.785 124.022 123.827 123.855C123.579 123.813 123.106 123.823 122.689 124.364C121.469 125.946 118.346 136.387 122.203 144.872C123.835 148.466 126.149 150.857 129.079 151.981C130.344 152.467 131.715 152.71 133.186 152.71L133.184 152.708ZM124.036 125.931C126.114 126.532 133.094 128.965 137.792 133.14C141.689 136.605 143.919 141.328 143.336 144.892C143.014 146.864 141.843 148.335 139.945 149.146C132.365 152.385 126.995 150.671 123.989 144.056C120.64 136.689 123.098 127.946 124.036 125.931Z" fill="#1D1D1B"/>
<path d="M111.168 168.026C111.629 168.026 112.044 167.699 112.133 167.227C112.299 166.367 112.465 165.407 112.644 164.387C113.058 162.011 113.529 159.317 114.07 157.348C114.214 156.824 113.906 156.284 113.383 156.14C112.86 155.996 112.319 156.304 112.175 156.827C111.609 158.888 111.131 161.629 110.707 164.05C110.53 165.06 110.364 166.015 110.201 166.858C110.099 167.391 110.449 167.907 110.982 168.009C111.044 168.021 111.106 168.026 111.168 168.026Z" fill="#1D1D1B"/>
<path d="M118.096 169.649C118.463 169.649 118.818 169.441 118.986 169.086C119.83 167.307 121.74 163.971 122.772 162.475C123.079 162.029 122.968 161.416 122.521 161.106C122.075 160.799 121.462 160.91 121.152 161.357C120.056 162.947 118.101 166.357 117.208 168.243C116.975 168.734 117.186 169.319 117.677 169.552C117.813 169.617 117.957 169.646 118.096 169.646V169.649Z" fill="#1D1D1B"/>
<path d="M91.0746 178.119C91.4342 178.119 91.7815 177.921 91.9526 177.579C92.1982 177.093 92.0023 176.502 91.5161 176.257C90.2833 175.637 88.4602 174.642 86.6991 173.682C84.9231 172.715 83.0875 171.713 81.825 171.078C81.3388 170.834 80.7485 171.028 80.5029 171.514C80.2573 172 80.4533 172.591 80.9395 172.836C82.1722 173.456 83.9954 174.451 85.7565 175.411C87.5325 176.378 89.368 177.38 90.6306 178.015C90.7719 178.087 90.9233 178.119 91.0721 178.119H91.0746Z" fill="#1D1D1B"/>
<path d="M137.431 145.544C137.578 145.544 137.726 145.512 137.868 145.442C138.354 145.202 138.552 144.611 138.312 144.125C138.146 143.788 134.169 135.833 129.092 131.492C128.68 131.14 128.058 131.187 127.705 131.601C127.353 132.013 127.4 132.636 127.815 132.988C132.582 137.066 136.511 144.921 136.551 145.001C136.722 145.348 137.072 145.546 137.434 145.546L137.431 145.544Z" fill="#1D1D1B"/>
<path d="M98.3101 175.916C98.6499 175.916 98.9873 175.777 99.2329 175.506C100.927 173.624 103.908 172.262 106.828 172.039C107.51 171.987 108.021 171.391 107.969 170.707C107.917 170.022 107.322 169.511 106.637 169.566C103.117 169.836 99.4858 171.515 97.3899 173.847C96.931 174.355 96.9732 175.139 97.4817 175.598C97.7198 175.812 98.0149 175.916 98.3101 175.916Z" fill="#EB5B5D"/>
<path d="M93.0554 189.798C93.1497 189.798 93.2488 189.788 93.3431 189.768C93.4374 189.75 93.5292 189.721 93.6185 189.686C93.7078 189.649 93.7946 189.602 93.874 189.55C93.9533 189.495 94.0302 189.433 94.0972 189.366C94.3725 189.091 94.5312 188.711 94.5312 188.322C94.5312 188.227 94.5214 188.131 94.5015 188.034C94.4817 187.94 94.4544 187.848 94.4172 187.759C94.38 187.669 94.3353 187.585 94.2807 187.503C94.2286 187.424 94.1666 187.347 94.0972 187.28C94.0302 187.21 93.9533 187.151 93.874 187.096C93.7946 187.042 93.7078 186.997 93.6185 186.96C93.5292 186.923 93.4374 186.895 93.3431 186.876C92.8644 186.779 92.3534 186.938 92.0111 187.28C91.9442 187.347 91.8822 187.424 91.8276 187.503C91.7755 187.585 91.7284 187.669 91.6912 187.759C91.6564 187.848 91.6266 187.94 91.6093 188.034C91.5894 188.131 91.5795 188.227 91.5795 188.322C91.5795 188.711 91.7358 189.091 92.0111 189.366C92.2865 189.641 92.666 189.798 93.0554 189.798Z" fill="#1D1D1B"/>
<path d="M136.162 163.772C136.663 163.772 137.151 163.517 137.427 163.058C141.686 155.981 148.209 151.806 155.794 151.303C156.608 151.248 157.223 150.546 157.169 149.733C157.114 148.919 156.414 148.306 155.598 148.359C147.024 148.929 139.671 153.607 134.899 161.537C134.48 162.234 134.703 163.142 135.403 163.561C135.641 163.705 135.904 163.772 136.162 163.772Z" fill="#1D1D1B"/>
<path d="M142.821 173.885C142.94 173.885 143.062 173.863 143.181 173.815C143.687 173.617 143.935 173.047 143.736 172.541C140.333 163.869 133.051 158.824 130.533 157.611C130.042 157.375 129.456 157.581 129.221 158.07C128.985 158.558 129.191 159.146 129.68 159.382C131.847 160.426 138.751 165.216 141.906 173.257C142.057 173.644 142.429 173.882 142.821 173.882V173.885Z" fill="#1D1D1B"/>
<path d="M3.61655 222.905C8.10616 220.522 15.4607 218.887 25.3502 211.051C40.2081 199.277 43.6311 172.218 37.5044 159.379C34.2203 152.496 30.4227 142.269 33.4712 129.147C36.4105 116.492 41.6071 110.727 50.8418 107.736C61.5102 104.281 72.0024 108.822 75.9488 119.622C78.8832 127.654 77.6405 135.507 73.0938 145C69.1127 153.312 64.9109 158.836 64.6653 171.716C63.7624 219.383 132.885 220.926 175.697 220.928C178.101 220.928 179.463 223.55 177.781 225.264C174.189 228.93 164.647 233.594 151.022 233.899C127.292 234.429 126.342 231.021 107.341 230.761C88.6091 230.505 82.7725 234.266 58.8214 234.397C37.1695 234.514 13.764 231.666 4.96094 230.466C2.9989 230.198 1.52553 228.548 1.47592 226.569C1.43872 225.041 2.26718 223.625 3.61655 222.908V222.905Z" fill="#A2C617"/>
<path d="M57.4985 235.876C57.9425 235.876 58.384 235.876 58.828 235.874C71.2278 235.807 78.9667 234.753 85.7929 233.822C92.2346 232.944 98.3192 232.116 107.321 232.237C115.64 232.351 120.333 233.058 125.301 233.805C131.403 234.723 137.714 235.675 151.053 235.375C164.391 235.077 174.615 230.6 178.832 226.299C179.98 225.128 180.31 223.491 179.695 222.025C179.038 220.463 177.47 219.453 175.697 219.453C148.273 219.453 97.2228 219.451 76.0398 197.858C69.2732 190.96 65.9419 182.175 66.1404 171.744C66.3338 161.473 69.102 156.09 72.3043 149.859C72.9963 148.513 73.7132 147.119 74.4226 145.635C79.3661 135.314 80.264 127.136 77.3346 119.112C73.1972 107.786 62.1146 102.528 50.387 106.328C40.2991 109.597 34.9835 116.111 32.0317 128.808C28.8766 142.388 32.8826 153.119 36.1716 160.009C39.0862 166.119 39.7286 175.817 37.8484 185.322C35.74 195.981 30.9751 204.704 24.4341 209.889C17.407 215.457 11.6028 217.856 7.3662 219.609C5.67453 220.309 4.21355 220.912 2.92619 221.596C1.07082 222.581 -0.050354 224.498 0.0017395 226.597C0.0687103 229.313 2.07045 231.553 4.76173 231.92C13.5599 233.12 36.0501 235.869 57.501 235.869L57.4985 235.876ZM105.542 229.273C97.3072 229.273 91.5079 230.064 85.3936 230.895C78.3268 231.858 71.0169 232.855 58.8107 232.919C37.1564 233.039 14.0758 230.218 5.15611 229C3.90598 228.829 2.97827 227.79 2.94603 226.53C2.92122 225.555 3.44214 224.665 4.30534 224.208C5.46867 223.591 6.86765 223.013 8.48985 222.34C12.8902 220.522 18.9127 218.029 26.2647 212.205C33.3563 206.585 38.4983 197.243 40.7431 185.898C42.7721 175.646 42.0577 165.494 38.8356 158.739C35.4771 151.7 31.9946 142.011 34.9066 129.475C37.6227 117.777 42.2189 112.075 51.2949 109.133C61.43 105.849 70.9971 110.368 74.559 120.121C77.2304 127.434 76.392 134.682 71.7586 144.355C71.0665 145.799 70.3596 147.176 69.675 148.505C66.443 154.791 63.392 160.726 63.1837 171.682C62.9704 182.936 66.5844 192.436 73.929 199.92C83.3745 209.546 98.6838 215.884 120.733 219.292C139.254 222.154 158.812 222.397 175.692 222.397C176.399 222.397 176.823 222.809 176.969 223.161C177.078 223.419 177.123 223.814 176.721 224.226C173.045 227.976 163.423 232.138 150.984 232.418C137.9 232.711 131.716 231.781 125.736 230.881C120.889 230.151 115.876 229.397 107.355 229.281C106.735 229.273 106.13 229.268 105.537 229.268L105.542 229.273Z" fill="#000100"/>
<path d="M51.477 114.451C51.6853 114.451 51.8986 114.399 52.0921 114.288C54.0591 113.159 56.3808 112.713 58.6281 113.025C59.3077 113.122 59.9328 112.648 60.0271 111.968C60.1213 111.291 59.65 110.664 58.9704 110.57C56.1824 110.18 53.3001 110.736 50.8569 112.135C50.2616 112.474 50.0582 113.233 50.398 113.826C50.6262 114.226 51.0454 114.449 51.4745 114.449L51.477 114.451Z" fill="#C8D409"/>
<path d="M66.598 29.241C59.7494 18.6197 43.7754 19.6094 38.0828 29.8289C30.6861 43.1066 42.1904 56.7863 55.5352 54.6456C67.6497 53.1673 73.7739 38.7584 66.598 29.241Z" fill="white"/>
<path d="M52.5413 21.7119C46.7619 21.7119 41.0395 24.5297 38.0853 29.8328C31.207 42.178 40.6699 54.8704 52.7596 54.8704C53.6724 54.8704 54.6001 54.7985 55.5377 54.6472C67.6522 53.1688 73.7764 38.7599 66.6005 29.2425C63.3065 24.1328 57.8991 21.7094 52.5413 21.7094M52.5389 19.7275C55.5898 19.7275 58.6011 20.4419 61.2452 21.7962C64.1052 23.2597 66.4542 25.3829 68.2277 28.1089C71.9781 33.1244 72.7024 39.6752 70.1674 45.6481C67.5877 51.7227 62.2225 55.8204 55.8155 56.6166C54.8035 56.7779 53.7741 56.8597 52.7596 56.8597C45.9979 56.8597 39.6778 53.2556 36.2696 47.4564C32.9185 41.7538 32.9483 34.9798 36.3515 28.8704C39.4917 23.2324 45.6953 19.73 52.5389 19.73V19.7275Z" fill="#1D1D1B"/>
<path d="M37.6493 48.5339C35.2631 50.3446 39.5815 55.6701 44.468 57.6296C49.357 59.5917 58.5619 59.0509 58.2171 55.2211C57.9939 52.7506 55.64 53.5344 50.4558 52.572C42.0918 51.0217 39.904 46.8248 37.6493 48.5339Z" fill="#A2C617"/>
<path d="M50.9928 59.7304C53.6692 59.7304 56.2464 59.2269 57.7669 58.0983C59.089 57.116 59.2775 55.9428 59.2056 55.1316C58.9749 52.5768 56.9682 52.3709 54.4258 52.108C53.4013 52.0038 52.1264 51.8723 50.6381 51.5945C46.5801 50.843 44.0451 49.4514 42.1947 48.4345C40.2326 47.3555 38.6824 46.5047 37.0502 47.7399C36.2317 48.3601 35.8646 49.3125 36.0134 50.4213C36.3905 53.2192 40.0913 56.9399 44.0997 58.5472C45.9798 59.3013 48.5297 59.7279 50.9953 59.7279L50.9928 59.7304ZM38.799 49.1265C39.2653 49.1265 39.93 49.4539 41.2372 50.1733C43.0951 51.1927 45.9005 52.7355 50.2735 53.5466C51.8436 53.8369 53.1607 53.9733 54.2199 54.0824C56.9632 54.3652 57.1543 54.4991 57.2262 55.3102C57.251 55.598 57.2138 56.0345 56.5813 56.5058C54.4952 58.0586 48.4578 58.1603 44.8364 56.7092C41.2794 55.2805 38.2284 52.0162 37.9779 50.1609C37.9109 49.6548 38.0772 49.4539 38.2458 49.3249C38.417 49.196 38.5856 49.129 38.7965 49.129L38.799 49.1265Z" fill="#1D1D1B"/>
<path d="M49.6343 43.3681C44.8889 43.3681 41.0421 39.5212 41.0421 34.7758C41.0421 30.0305 44.8889 26.1836 49.6343 26.1836C54.3797 26.1836 58.2266 30.0305 58.2266 34.7758C58.2266 39.5212 54.3797 43.3681 49.6343 43.3681Z" fill="#F49525"/>
<path d="M49.6382 26.1846C44.8931 26.1846 41.046 30.0317 41.046 34.7768C41.046 39.5219 44.8931 43.369 49.6382 43.369C54.3833 43.369 58.2305 39.5219 58.2305 34.7768C58.2305 30.0317 54.3833 26.1846 49.6382 26.1846ZM49.6382 24.6963C55.1969 24.6963 59.7188 29.2181 59.7188 34.7768C59.7188 40.3355 55.1969 44.8573 49.6382 44.8573C44.0795 44.8573 39.5577 40.3355 39.5577 34.7768C39.5577 29.2181 44.0795 24.6963 49.6382 24.6963Z" fill="#1D1D1B"/>
<path d="M45.0037 30.5832C45.8818 29.4918 47.1319 28.8072 48.5234 28.6559C49.915 28.5046 51.2817 28.9039 52.3756 29.782C53.467 30.6601 54.1516 31.9102 54.3054 33.3017C54.6154 36.1766 52.5318 38.7686 49.657 39.0812C49.3891 39.1109 49.1212 39.1184 48.8558 39.1085C47.7471 39.0613 46.6854 38.6669 45.8049 37.9575C44.7135 37.0795 44.0289 35.8318 43.8776 34.4403C43.7263 33.0463 44.1256 31.6771 45.0037 30.5857V30.5832Z" fill="#1D1D1B"/>
<path d="M54.9003 37.5452C55.0813 38.9342 54.104 40.2067 52.715 40.3878C51.3259 40.5689 50.0535 39.5891 49.8724 38.2025C49.6913 36.8135 50.6711 35.541 52.0577 35.3599C53.4467 35.1789 54.7192 36.1586 54.9003 37.5452Z" fill="white"/>
<path d="M126.465 51.2568C122.208 31.4257 97.5105 22.7665 82.0375 35.0422C63.7293 49.5652 71.2054 80.8683 95.1119 84.7502C115.186 88.2178 131.026 69.679 126.465 51.2568Z" fill="white"/>
<path d="M98.5632 29.3691C92.7565 29.3691 86.9374 31.1575 82.0385 35.0419C63.7303 49.5649 71.2064 80.868 95.1129 84.7499C96.7624 85.0351 98.3847 85.1716 99.9697 85.1716C117.655 85.1716 130.653 68.1657 126.466 51.2565C123.556 37.7034 111.097 29.3691 98.5632 29.3666M98.5607 27.1367H98.5632C105.317 27.1367 112.03 29.3766 117.462 33.4445C123.268 37.7927 127.135 43.778 128.641 50.7555C130.809 59.5511 128.79 68.761 123.102 76.0287C117.444 83.2591 109.013 87.4039 99.9697 87.4039C98.2433 87.4039 96.4846 87.2526 94.7458 86.9525C88.6836 85.9653 83.2117 83.2343 78.923 79.0548C74.9494 75.1804 72.082 70.1947 70.6334 64.636C69.1774 59.0426 69.2443 53.2409 70.8269 47.8533C72.5235 42.0814 75.9217 37.0461 80.6519 33.2932C85.7294 29.2649 91.923 27.1367 98.5607 27.1367Z" fill="#1D1D1B"/>
<path d="M91.495 6.26183C100.75 10.6969 105.666 19.867 106.435 24.7982C106.474 25.0586 108.037 24.9098 108.097 24.5328C108.997 18.8699 104.793 5.86496 94.0846 0.715565C92.5517 0.00119877 90.2374 5.65908 91.495 6.26183Z" fill="#1D1D1B"/>
<path d="M93.9664 63.8361C85.7456 63.8361 79.0813 57.1719 79.0813 48.951C79.0813 40.7302 85.7456 34.0659 93.9664 34.0659C102.187 34.0659 108.852 40.7302 108.852 48.951C108.852 57.1719 102.187 63.8361 93.9664 63.8361Z" fill="#F49525"/>
<path d="M93.9645 34.0639C85.7443 34.0639 79.0793 40.7289 79.0793 48.9491C79.0793 57.1692 85.7443 63.8342 93.9645 63.8342C102.185 63.8342 108.85 57.1692 108.85 48.9491C108.85 40.7289 102.185 34.0639 93.9645 34.0639ZM93.9645 32.3276C103.13 32.3276 110.586 39.7838 110.586 48.9491C110.586 58.1143 103.13 65.5705 93.9645 65.5705C84.7992 65.5705 77.343 58.1143 77.343 48.9491C77.343 39.7838 84.7992 32.3276 93.9645 32.3276Z" fill="#1D1D1B"/>
<path d="M74.2656 6.59443C67.6652 5.25251 61.4616 8.10997 59.1051 10.387C58.9811 10.5086 58.2221 9.81156 58.3387 9.5908C60.1097 6.26949 67.4593 1.12257 75.104 2.6654C76.188 2.89856 75.1611 6.77798 74.2631 6.59443H74.2656Z" fill="#1D1D1B"/>
<path d="M108.853 86.1067C109.069 91.3231 95.6173 92.3549 87.1143 88.9146C78.6064 85.4717 69.0988 73.9153 73.8067 71.6606C76.2673 70.4824 77.3612 73.9873 85.4003 78.4074C99.2089 86.0001 108.652 81.2054 108.853 86.1067Z" fill="#A2C617"/>
<path d="M74.7382 71.4306C74.4406 71.4306 74.138 71.505 73.8106 71.6613C69.1002 73.916 78.6102 85.4699 87.1182 88.9153C90.432 90.2572 94.495 90.917 98.2082 90.917C104.027 90.917 108.988 89.2923 108.857 86.1074C108.653 81.2036 99.2103 85.9983 85.4042 78.4081C78.4341 74.5758 76.6854 71.4306 74.7382 71.4306ZM74.7382 69.1982C76.4696 69.1982 77.7073 70.2078 79.4188 71.6067C80.9443 72.8519 83.0353 74.5585 86.4782 76.451C93.4358 80.2759 99.1012 80.7596 103.236 81.1118C105.215 81.2805 106.776 81.4144 108.053 81.8882C110.459 82.7861 111.032 84.6266 111.089 86.0156C111.149 87.4369 110.628 88.7615 109.586 89.8479C106.828 92.7203 101.274 93.1494 98.2082 93.1494C94.0287 93.1494 89.6805 92.3606 86.2798 90.9839C82.7625 89.5602 78.9029 86.8118 75.6907 83.4434C73.7361 81.3946 70.4396 77.4283 70.3305 73.9135C70.271 71.9962 71.1887 70.4409 72.8457 69.6472C73.4683 69.3495 74.1057 69.1982 74.7382 69.1982Z" fill="#1D1D1B"/>
<path d="M83.5754 43.0968C84.2328 41.3853 85.6045 40.0682 87.4375 39.391C89.2532 38.7188 91.3094 38.7536 93.2243 39.4903C95.1393 40.2245 96.6896 41.5738 97.59 43.2878C98.5003 45.0192 98.6392 46.9167 97.9819 48.6282C97.3246 50.3397 95.9529 51.6543 94.1198 52.334C93.2467 52.6564 92.319 52.8177 91.3764 52.8152C90.3594 52.8127 89.3276 52.6192 88.3329 52.2373C86.418 51.503 84.8677 50.1537 83.9673 48.4397C83.057 46.7084 82.9181 44.8108 83.5754 43.1018V43.0968Z" fill="#1D1D1B"/>
<path d="M99.3437 51.0154C99.3388 52.9278 97.7835 54.4731 95.8711 54.4681C93.9587 54.4632 92.4133 52.9079 92.4183 50.9955C92.4233 49.0831 93.9785 47.5378 95.8909 47.5427C97.8033 47.5477 99.3487 49.1029 99.3437 51.0154Z" fill="white"/>
<path d="M18.0964 105.22C16.706 105.216 15.5812 104.432 15.5843 103.471C15.5873 102.509 16.7169 101.733 18.1074 101.737C19.4978 101.742 20.6226 102.525 20.6195 103.487C20.6165 104.448 19.4869 105.224 18.0964 105.22Z" fill="#1D1D1B"/>
<path d="M18.1035 106.218C19.2073 106.218 20.2218 105.839 20.8891 105.174C21.3727 104.695 21.6381 104.085 21.6406 103.462C21.6431 102.664 21.2165 101.907 20.4674 101.386C19.8249 100.937 18.9865 100.689 18.1085 100.687H18.0936C16.1142 100.687 14.5614 101.895 14.5565 103.443C14.5565 104.995 16.1068 106.216 18.0911 106.221H18.106L18.1035 106.218ZM18.0911 102.733C18.4805 102.721 18.9915 102.855 19.2966 103.066C19.4777 103.192 19.5918 103.341 19.5918 103.455C19.5918 103.562 19.5 103.666 19.4454 103.72C19.2271 103.936 18.7608 104.169 18.106 104.169H18.0986C17.1709 104.167 16.6078 103.698 16.6078 103.445C16.6103 103.192 17.1758 102.733 18.0936 102.733H18.0911Z" fill="#1D1D1B"/>
<path d="M20.6188 104.297C21.1844 104.297 21.6408 103.841 21.6433 103.275L21.6631 96.6549C22.6851 96.9104 24.1237 96.9179 25.8476 95.9802C26.3437 95.7099 26.5298 95.0873 26.2569 94.5912C25.9865 94.0951 25.3714 93.9066 24.8654 94.1819C22.6801 95.3701 21.358 94.3283 21.3034 94.2836C20.9959 94.0356 20.5717 93.9785 20.2096 94.1472C19.8524 94.3159 19.6192 94.6706 19.6168 95.065L19.592 103.27C19.592 103.836 20.0484 104.297 20.6139 104.297H20.6164H20.6188Z" fill="#1D1D1B"/>
<path d="M4.69798 97.6348C3.30752 97.6304 2.18278 96.8473 2.1858 95.8856C2.18882 94.9239 3.31846 94.1479 4.70892 94.1522C6.09937 94.1566 7.22411 94.9397 7.22109 95.9014C7.21807 96.8631 6.08843 97.6391 4.69798 97.6348Z" fill="#1D1D1B"/>
<path d="M4.69726 98.633C6.67665 98.633 8.22941 97.425 8.23438 95.8772C8.23438 94.3245 6.6841 93.1041 4.69974 93.0991C3.56369 93.1165 2.56903 93.4761 1.89931 94.1434C1.41562 94.6221 1.1502 95.2323 1.14772 95.8574C1.14772 96.6561 1.57191 97.4126 2.321 97.9335C2.96344 98.3825 3.8018 98.6305 4.67988 98.633H4.69477H4.69726ZM4.68484 95.1504H4.69229C5.61998 95.1529 6.18304 95.6217 6.18304 95.8747C6.18304 96.1277 5.62741 96.5941 4.68733 96.5866C4.22844 96.5866 3.7919 96.4651 3.49176 96.2542C3.31069 96.1277 3.19657 95.9789 3.19657 95.8648C3.19657 95.7581 3.28837 95.6515 3.34294 95.5994C3.56122 95.3836 4.02752 95.1504 4.68236 95.1504H4.68484Z" fill="#1D1D1B"/>
<path d="M7.21261 96.7102C7.77816 96.7102 8.23456 96.2538 8.23704 95.6882L8.25687 89.0679C9.28378 89.3234 10.7175 89.3309 12.4414 88.3932C12.9375 88.1229 13.1235 87.5003 12.8507 87.0042C12.5828 86.5081 11.9676 86.3221 11.4591 86.5949C9.27138 87.7831 7.95179 86.7413 7.89722 86.6966C7.58964 86.4486 7.16548 86.3915 6.80333 86.5627C6.44615 86.7314 6.21299 87.0861 6.2105 87.4804L6.18571 95.6857C6.18571 96.2513 6.64211 96.7127 7.20765 96.7127H7.21013L7.21261 96.7102Z" fill="#1D1D1B"/>
<path d="M18.3464 80.4731C16.956 80.4688 15.8312 79.6856 15.8342 78.724C15.8373 77.7623 16.9669 76.9863 18.3574 76.9906C19.7478 76.995 20.8726 77.7781 20.8695 78.7398C20.8665 79.7015 19.7369 80.4775 18.3464 80.4731Z" fill="#1D1D1B"/>
<path d="M18.3457 81.474C20.3251 81.474 21.8778 80.266 21.8828 78.7182C21.8853 77.917 21.4587 77.1605 20.7096 76.6396C20.0671 76.1907 19.2262 75.9426 18.3482 75.9401C17.2518 75.9302 16.2175 76.3171 15.5477 76.9844C15.064 77.4631 14.7986 78.0708 14.7962 78.6959C14.7962 79.4971 15.2203 80.2536 15.9694 80.7745C16.6118 81.2235 17.4502 81.4715 18.3283 81.474H18.3432H18.3457ZM18.3333 77.989H18.3407C18.7996 77.989 19.2361 78.1105 19.5388 78.3213C19.7198 78.4478 19.834 78.5967 19.834 78.7108C19.834 78.9638 19.2684 79.4251 18.3482 79.4251H18.3382C17.8794 79.4251 17.4428 79.3036 17.1427 79.0928C16.9616 78.9663 16.8475 78.8174 16.8475 78.7033C16.8475 78.5967 16.9393 78.4925 16.9938 78.4379C17.2121 78.2221 17.6784 77.989 18.3333 77.989Z" fill="#1D1D1B"/>
<path d="M20.8532 79.5491C21.4188 79.5491 21.8752 79.0927 21.8777 78.5272L21.8975 71.9069C22.9194 72.1648 24.3556 72.1723 26.082 71.2322C26.5781 70.9618 26.7641 70.3392 26.4913 69.8432C26.2234 69.3471 25.6083 69.161 25.0998 69.4339C22.912 70.622 21.5924 69.5802 21.5378 69.5356C21.2303 69.2875 20.8061 69.2305 20.444 69.3992C20.0868 69.5678 19.8536 69.9225 19.8511 70.3169L19.8263 78.5222C19.8263 79.0877 20.2827 79.5491 20.8483 79.5491H20.8508H20.8532Z" fill="#1D1D1B"/>
<path d="M75.3976 164.323C64.6375 182.956 71.8754 200.686 81.8245 207.391C84.5306 209.214 95.1346 213.408 95.1346 213.408C95.1346 213.408 101.891 218.054 115.63 219.317C125.649 220.237 134.951 216.405 143.503 207.594C153.395 197.402 160.202 168.22 134.953 151.561C113.909 137.678 87.1946 143.899 75.4001 164.325L75.3976 164.323Z" fill="#E62B29"/>
<path d="M84.462 163.943C84.8192 163.943 85.1714 163.789 85.417 163.494C91.6627 155.963 100.979 151.818 111.648 151.818C111.665 151.818 111.682 151.818 111.697 151.818C112.382 151.818 112.938 151.265 112.938 150.581C112.938 149.896 112.384 149.34 111.7 149.338H111.65C100.228 149.338 90.2365 153.8 83.5095 161.909C83.073 162.435 83.1449 163.218 83.6732 163.655C83.9039 163.846 84.1842 163.94 84.4645 163.94L84.462 163.943Z" fill="#EB5B5D"/>
<path d="M117.154 220.606C119.56 220.606 122.06 220.41 124.59 219.936C134.041 218.165 141.77 212.981 147.557 204.522C153.634 195.64 155.553 184.939 152.959 174.39C150.225 163.28 142.66 153.718 132.198 148.159C124.111 143.863 114.085 142.067 104.692 143.236C94.5543 144.493 85.7141 149.072 79.8007 156.129C74.185 162.829 70.6776 170.907 69.9235 178.877C69.0554 188.057 71.7963 196.989 77.8461 204.708C78.3496 205.351 79.2748 205.462 79.9173 204.959C80.5572 204.455 80.6713 203.53 80.1678 202.888C67.4431 186.656 72.8033 169.069 82.0604 158.024C94.098 143.662 116.303 143.055 130.814 150.766C140.534 155.931 147.561 164.798 150.094 175.094C152.485 184.818 150.719 194.678 145.121 202.856C132.763 220.913 113.728 218.596 103.479 215.607C90.8287 211.917 85.4784 198.344 86.7335 186.842C87.8076 177.004 94.026 166.152 108.264 165.205C118.754 164.503 128.117 173.584 129.169 181.861C129.849 187.214 126.969 193.172 122.164 196.347C119.532 198.086 114.1 200.405 107.269 196.406C104.779 194.948 103.008 192.477 102.41 189.625C101.872 187.058 102.373 184.471 103.787 182.526C105.558 180.09 107.976 179.068 110.427 179.72C112.624 180.306 114.254 182.124 114.482 184.242C114.569 185.053 115.296 185.639 116.107 185.552C116.918 185.465 117.503 184.738 117.417 183.927C117.059 180.604 114.557 177.768 111.188 176.868C107.549 175.898 103.891 177.364 101.403 180.79C99.5004 183.406 98.8183 186.847 99.5252 190.228C100.292 193.894 102.574 197.074 105.781 198.951C111.776 202.461 118.342 202.407 123.791 198.805C129.588 194.975 132.927 188.015 132.096 181.487C131.468 176.553 128.531 171.57 124.037 167.817C119.304 163.863 113.631 161.891 108.068 162.261C101.088 162.727 95.11 165.49 90.7841 170.253C86.9121 174.517 84.4962 180.142 83.7992 186.524C82.4126 199.249 88.4425 214.298 102.653 218.443C106.394 219.534 111.513 220.608 117.151 220.608L117.154 220.606Z" fill="#1D1D1B"/>
<path fill-rule="evenodd" clip-rule="evenodd" d="M123.096 144.463C119.12 135.715 122.97 124.704 123.657 124.823C124.607 124.989 132.943 127.512 138.448 132.406C145.157 138.371 146.787 147.293 140.335 150.052C131.371 153.881 125.968 150.781 123.096 144.466V144.463Z" fill="#B2CB1D"/>
<path d="M133.184 152.708C135.466 152.708 137.986 152.122 140.722 150.954C143.232 149.883 144.852 147.841 145.281 145.209C145.975 140.941 143.552 135.627 139.102 131.671C133.417 126.619 124.785 124.022 123.827 123.855C123.579 123.813 123.106 123.823 122.689 124.364C121.469 125.946 118.346 136.387 122.203 144.872C123.835 148.466 126.149 150.857 129.079 151.981C130.344 152.467 131.715 152.71 133.186 152.71L133.184 152.708ZM124.036 125.931C126.114 126.532 133.094 128.965 137.792 133.14C141.689 136.605 143.919 141.328 143.336 144.892C143.014 146.864 141.843 148.335 139.945 149.146C132.365 152.385 126.995 150.671 123.989 144.056C120.64 136.689 123.098 127.946 124.036 125.931Z" fill="#1D1D1B"/>
<path d="M111.168 168.026C111.629 168.026 112.044 167.699 112.133 167.227C112.299 166.367 112.465 165.407 112.644 164.387C113.058 162.011 113.529 159.317 114.07 157.348C114.214 156.824 113.906 156.284 113.383 156.14C112.86 155.996 112.319 156.304 112.175 156.827C111.609 158.888 111.131 161.629 110.707 164.05C110.53 165.06 110.364 166.015 110.201 166.858C110.099 167.391 110.449 167.907 110.982 168.009C111.044 168.021 111.106 168.026 111.168 168.026Z" fill="#1D1D1B"/>
<path d="M118.096 169.649C118.463 169.649 118.818 169.441 118.986 169.086C119.83 167.307 121.74 163.971 122.772 162.475C123.079 162.029 122.968 161.416 122.521 161.106C122.075 160.799 121.462 160.91 121.152 161.357C120.056 162.947 118.101 166.357 117.208 168.243C116.975 168.734 117.186 169.319 117.677 169.552C117.813 169.617 117.957 169.646 118.096 169.646V169.649Z" fill="#1D1D1B"/>
<path d="M91.0746 178.119C91.4342 178.119 91.7815 177.921 91.9526 177.579C92.1982 177.093 92.0023 176.502 91.5161 176.257C90.2833 175.637 88.4602 174.642 86.6991 173.682C84.9231 172.715 83.0875 171.713 81.825 171.078C81.3388 170.834 80.7485 171.028 80.5029 171.514C80.2573 172 80.4533 172.591 80.9395 172.836C82.1722 173.456 83.9954 174.451 85.7565 175.411C87.5325 176.378 89.368 177.38 90.6306 178.015C90.7719 178.087 90.9233 178.119 91.0721 178.119H91.0746Z" fill="#1D1D1B"/>
<path d="M137.431 145.544C137.578 145.544 137.726 145.512 137.868 145.442C138.354 145.202 138.552 144.611 138.312 144.125C138.146 143.788 134.169 135.833 129.092 131.492C128.68 131.14 128.058 131.187 127.705 131.601C127.353 132.013 127.4 132.636 127.815 132.988C132.582 137.066 136.511 144.921 136.551 145.001C136.722 145.348 137.072 145.546 137.434 145.546L137.431 145.544Z" fill="#1D1D1B"/>
<path d="M98.3101 175.916C98.6499 175.916 98.9873 175.777 99.2329 175.506C100.927 173.624 103.908 172.262 106.828 172.039C107.51 171.987 108.021 171.391 107.969 170.707C107.917 170.022 107.322 169.511 106.637 169.566C103.117 169.836 99.4858 171.515 97.3899 173.847C96.931 174.355 96.9732 175.139 97.4817 175.598C97.7198 175.812 98.0149 175.916 98.3101 175.916Z" fill="#EB5B5D"/>
<path d="M93.0554 189.798C93.1497 189.798 93.2488 189.788 93.3431 189.768C93.4374 189.75 93.5292 189.721 93.6185 189.686C93.7078 189.649 93.7946 189.602 93.874 189.55C93.9533 189.495 94.0302 189.433 94.0972 189.366C94.3725 189.091 94.5312 188.711 94.5312 188.322C94.5312 188.227 94.5214 188.131 94.5015 188.034C94.4817 187.94 94.4544 187.848 94.4172 187.759C94.38 187.669 94.3353 187.585 94.2807 187.503C94.2286 187.424 94.1666 187.347 94.0972 187.28C94.0302 187.21 93.9533 187.151 93.874 187.096C93.7946 187.042 93.7078 186.997 93.6185 186.96C93.5292 186.923 93.4374 186.895 93.3431 186.876C92.8644 186.779 92.3534 186.938 92.0111 187.28C91.9442 187.347 91.8822 187.424 91.8276 187.503C91.7755 187.585 91.7284 187.669 91.6912 187.759C91.6564 187.848 91.6266 187.94 91.6093 188.034C91.5894 188.131 91.5795 188.227 91.5795 188.322C91.5795 188.711 91.7358 189.091 92.0111 189.366C92.2865 189.641 92.666 189.798 93.0554 189.798Z" fill="#1D1D1B"/>
<path d="M136.162 163.772C136.663 163.772 137.151 163.517 137.427 163.058C141.686 155.981 148.209 151.806 155.794 151.303C156.608 151.248 157.223 150.546 157.169 149.733C157.114 148.919 156.414 148.306 155.598 148.359C147.024 148.929 139.671 153.607 134.899 161.537C134.48 162.234 134.703 163.142 135.403 163.561C135.641 163.705 135.904 163.772 136.162 163.772Z" fill="#1D1D1B"/>
<path d="M142.821 173.885C142.94 173.885 143.062 173.863 143.181 173.815C143.687 173.617 143.935 173.047 143.736 172.541C140.333 163.869 133.051 158.824 130.533 157.611C130.042 157.375 129.456 157.581 129.221 158.07C128.985 158.558 129.191 159.146 129.68 159.382C131.847 160.426 138.751 165.216 141.906 173.257C142.057 173.644 142.429 173.882 142.821 173.882V173.885Z" fill="#1D1D1B"/>
<path d="M47.668 119.656C47.668 119.656 40.3705 120.239 37.4907 113.507C34.3033 106.063 25.0513 117.729 28.8687 120.418C30.2776 121.41 39.5991 123.694 40.5665 130.878" fill="#A2C617"/>
<path d="M40.5647 132.245C40.6242 132.245 40.6862 132.24 40.7483 132.232C41.4949 132.13 42.0182 131.446 41.919 130.697C41.036 124.141 34.2619 121.286 31.0051 119.914C30.4767 119.691 29.8169 119.413 29.6532 119.302C29.1398 118.94 29.3556 117.937 29.4722 117.523C30.1493 115.112 32.6223 112.542 34.371 112.428C34.6538 112.411 35.5145 112.354 36.2388 114.043C38.8234 120.081 44.9179 121.244 47.7803 121.016C48.5319 120.956 49.0925 120.299 49.0305 119.547C48.9709 118.798 48.3161 118.24 47.567 118.295C47.2942 118.314 41.1923 118.682 38.7465 112.969C37.4567 109.955 35.3409 109.63 34.1924 109.705C30.9778 109.916 27.7408 113.604 26.8453 116.784C26.2674 118.84 26.7188 120.572 28.0831 121.532C28.4775 121.809 29.0629 122.055 29.9459 122.427C32.9497 123.692 38.5406 126.048 39.2153 131.059C39.3071 131.744 39.8925 132.242 40.5647 132.242V132.245Z" fill="#1D1D1B"/>
<path d="M31.5353 118.409C30.9646 117.971 31.2151 116.687 32.0947 115.54C32.9743 114.393 34.15 113.819 34.7206 114.256C35.2913 114.694 35.0408 115.978 34.1612 117.125C33.2816 118.272 32.1059 118.847 31.5353 118.409Z" fill="#1D1D1B"/>
</svg>
