<svg width="137" height="154" viewBox="0 0 137 154" fill="none" xmlns="http://www.w3.org/2000/svg">
<path fill-rule="evenodd" clip-rule="evenodd" d="M21.6956 122.967C25.8769 121.179 30.3046 124.916 29.2596 129.344C33.6246 130.651 34.6408 136.374 30.9808 139.09C33.4899 142.896 30.5867 147.935 26.0351 147.665C25.5166 152.196 20.0422 154.187 16.7347 151.055C13.4272 154.187 7.9528 152.196 7.43438 147.665C2.8827 147.935 -0.0308139 142.896 2.48868 139.09C-1.17133 136.374 -0.165566 130.64 4.20986 129.344C3.15229 124.907 7.6106 121.164 11.7994 122.978C13.8401 118.907 19.6481 118.903 21.6956 122.967ZM15.6342 126.327L10.0561 139.516H10.0663V142.305H15.9763V145.84H18.9832V142.305H20.4346V139.516H18.9832V126.327H15.6342ZM15.9659 132.185V139.516H12.8762L15.9659 132.185Z" fill="#1D1917"/>
<path d="M69.8604 22.4576C70.0989 22.779 70.3581 23.0797 70.6277 23.37C70.3581 23.0797 70.1093 22.7686 69.8604 22.4576ZM75.0965 0.964071C69.6635 3.19326 66.8639 7.97304 66.9676 13.8311C66.8639 7.99378 69.6738 3.20363 75.0965 0.974442C75.2935 0.891495 75.4904 0.818916 75.6978 0.746338C75.5008 0.818916 75.2935 0.891495 75.0965 0.974442V0.964071ZM77.3567 16.361C77.3567 16.361 77.3153 16.2988 77.3049 16.2781C77.3257 16.3092 77.3359 16.3403 77.3567 16.361C77.4811 16.5373 77.6055 16.7032 77.7611 16.8379C77.6159 16.6928 77.4811 16.5269 77.3567 16.361ZM80.6746 22.7064C81.473 22.5405 82.2506 22.2502 82.966 21.8666C82.2506 22.2502 81.473 22.5301 80.6746 22.7064ZM82.9452 16.4336C83.0904 16.2158 83.2148 15.9981 83.3081 15.77C83.2148 15.9981 83.0904 16.2158 82.9348 16.4336H82.9452ZM84.4279 26.4494C84.7908 26.2835 85.1434 26.0865 85.4751 25.8895C85.133 26.0865 84.7805 26.2835 84.4279 26.4494ZM87.1029 24.749C87.414 24.5001 87.6939 24.2409 87.9738 23.9713C87.7042 24.2409 87.414 24.5001 87.1029 24.749ZM89.6225 21.9184C89.5395 22.0428 89.4668 22.1776 89.3839 22.302C89.4668 22.1776 89.5499 22.0532 89.6328 21.9184H89.6225ZM90.8666 25.848C91.2399 25.454 91.5924 25.0496 91.9242 24.6142C91.5924 25.0393 91.2399 25.454 90.8666 25.848ZM94.6822 11.5605C94.5993 11.2391 94.5059 10.9176 94.3919 10.5859C94.4955 10.9176 94.5889 11.2391 94.6718 11.5605H94.6822ZM94.3919 10.5962C94.2778 10.2644 94.1638 9.94302 94.029 9.62161C94.1638 9.94302 94.2882 10.2748 94.3919 10.5962Z" fill="white"/>
<path d="M94.2471 20.322C94.1642 20.5501 94.0812 20.7782 93.9879 21.0063C93.7184 21.6802 93.3969 22.3334 93.034 22.9555C92.7955 23.3806 92.5259 23.785 92.246 24.179C91.8313 24.77 91.3647 25.3299 90.8671 25.8483C90.7012 26.0245 90.5353 26.1904 90.359 26.3563C87.7462 28.8758 84.2418 30.4933 80.3018 30.6073C78.4459 30.6695 76.424 30.3481 74.5058 29.7053C74.257 29.6223 74.0082 29.529 73.749 29.4357C73.2617 29.2387 72.764 29.0313 72.2974 28.7929C70.8769 28.0878 69.5913 27.1858 68.5648 26.1075C68.2123 25.7342 67.8702 25.3402 67.5591 24.9359C67.2377 24.5315 66.9371 24.1271 66.6675 23.6917C66.2527 23.0488 65.8898 22.3956 65.5684 21.7113C65.247 21.027 64.9774 20.3323 64.7596 19.6169C64.0338 17.2115 63.8784 14.6401 64.4071 12.0895C64.4797 11.7474 64.5626 11.4052 64.656 11.0631C64.9048 10.1714 65.5269 8.65762 66.2527 7.64153C66.3771 7.47564 66.5015 7.32011 66.626 7.18532C66.7504 7.05053 66.8748 6.93648 66.9992 6.84317C67.0718 6.79133 67.1445 6.73949 67.217 6.70838C67.3311 6.65654 67.4347 6.62544 67.5591 6.65654C67.5591 6.71875 67.5591 6.78096 67.5384 6.8328C67.5176 6.88464 67.5072 6.92612 67.4865 6.96759C67.2688 7.60006 66.9578 8.20142 66.7711 8.84425C65.1641 14.298 66.6778 21.421 71.2398 24.9877C71.8204 25.4335 72.3907 25.8172 72.9817 26.1489C74.7444 27.1339 76.6003 27.6212 78.8087 27.7042C79.6797 27.7457 80.5714 27.6524 81.4631 27.4657C81.7119 27.4139 81.9607 27.3517 82.2199 27.2791C82.4688 27.2065 82.7176 27.1236 82.9664 27.0406C83.2153 26.9577 83.4641 26.8644 83.7025 26.7607C83.941 26.657 84.1899 26.5533 84.4284 26.4289C84.7913 26.2526 85.1438 26.066 85.4756 25.869C85.5896 25.7964 85.7037 25.7342 85.8177 25.6616C86.0354 25.5165 86.2532 25.3713 86.4709 25.2158C86.6886 25.0603 86.896 24.8944 87.1034 24.7389C87.404 24.5004 87.6943 24.2412 87.9743 23.9612C88.1609 23.7746 88.3372 23.588 88.5031 23.4013C88.9282 22.9348 89.3015 22.4267 89.6229 21.8979C89.8718 21.4936 90.0894 21.0788 90.2968 20.6537C90.6389 19.9487 90.9085 19.2126 91.1159 18.4764C91.2403 18.0513 91.3337 17.6366 91.4062 17.2011C91.4166 17.1596 91.427 17.1182 91.4374 17.0663C91.4892 16.7864 91.5307 16.4961 91.5514 16.2265C91.5825 15.9154 91.6032 15.6148 91.6135 15.3141C91.6343 14.8475 91.6136 14.3809 91.5825 13.9144C91.4892 12.6494 91.2196 11.4052 90.753 10.1921C90.639 9.89145 90.5146 9.59077 90.3694 9.30046C90.0895 8.70946 89.7576 8.13921 89.3843 7.58969C87.1033 4.24072 82.4584 2.644 78.4874 3.51494C78.1245 3.59789 77.7719 3.6912 77.4298 3.81562C77.0773 3.94004 76.7351 4.07483 76.4137 4.24072C75.8953 4.49993 75.3768 4.83172 74.8895 5.21535C74.7236 5.33977 74.5577 5.47455 74.4022 5.61971C73.9253 6.03444 73.469 6.51138 73.0646 7.00906C71.8308 8.52283 70.9289 10.3477 70.7111 12.1103C70.5867 13.0849 70.6074 14.1113 70.7733 15.1171C70.8148 15.3452 70.8562 15.5836 70.9081 15.8118C71.0118 16.268 71.1466 16.7242 71.3125 17.1596C71.4369 17.4914 71.5717 17.8232 71.7272 18.1343C72.0901 18.8704 72.5255 19.5651 73.0543 20.1768C73.2098 20.3531 73.3654 20.519 73.5313 20.6849C74.2674 21.4106 75.1384 21.9913 76.1441 22.3749C76.393 22.4682 76.6522 22.5511 76.9114 22.6134C77.1187 22.6756 77.3261 22.717 77.5438 22.7585C78.0519 22.8518 78.5703 22.8933 79.0783 22.8829C81.2764 22.8518 83.4123 21.929 84.9364 20.4256C85.1231 20.2494 85.2993 20.0628 85.4548 19.8658C85.6207 19.6688 85.7762 19.4614 85.9214 19.254C86.1287 18.9326 86.3258 18.6008 86.4917 18.2483C86.6057 18.0202 86.6989 17.7817 86.7923 17.5329C87.1655 16.4753 87.29 15.3141 87.1034 14.0699C86.9167 12.836 86.3568 11.7059 85.5481 10.8039C85.4859 10.7313 85.4238 10.6691 85.3616 10.5965C85.2993 10.5239 85.2267 10.4617 85.1645 10.3995C85.0297 10.2751 84.8949 10.1507 84.7497 10.0366C84.6046 9.92255 84.4595 9.8085 84.304 9.70482C83.8478 9.39377 83.35 9.14493 82.8316 8.96867C81.7326 8.57468 80.5299 8.51247 79.3583 8.87536C79.0369 8.97904 78.7258 9.10346 78.4251 9.26935C75.6153 10.7728 74.817 14.609 76.9321 17.0352C76.984 17.0974 77.0357 17.1493 77.0875 17.2011C77.1394 17.2529 77.1913 17.3048 77.2535 17.3566C77.3675 17.4603 77.4815 17.5536 77.606 17.6366C77.7304 17.7299 77.8548 17.8025 77.9896 17.875C78.2592 18.0202 78.5392 18.1343 78.8295 18.2172C78.9746 18.269 79.1198 18.3001 79.265 18.3313C81.1105 18.6838 83.1738 17.9373 83.8996 16.1021C84.4906 14.6194 84.1692 13.1782 83.3812 12.131C83.3397 12.0792 83.2982 12.0273 83.2568 11.9755C83.1738 11.8718 83.0909 11.7785 82.9976 11.6852C82.9561 11.6333 82.9042 11.5918 82.8628 11.5504C82.8109 11.5089 82.7591 11.4674 82.7072 11.426C82.6035 11.343 82.5102 11.2704 82.3961 11.1979C82.2924 11.1253 82.1784 11.0631 82.0644 11.0009C81.7741 10.8453 81.4734 10.7313 81.1623 10.638C81.0379 10.6069 80.9135 10.5758 80.7787 10.555C79.7419 10.3891 78.622 10.6483 77.5956 11.4882C77.2431 11.7785 76.9838 12.2036 76.6832 12.5354C76.4862 12.5976 76.5692 12.2658 76.6003 12.1621C76.9943 10.8142 78.8813 9.41451 80.2499 9.34193C85.2163 9.05162 87.767 14.0077 85.6208 18.2276C85.5378 18.3831 85.4651 18.5282 85.3718 18.6734C85.1022 19.1089 84.7913 19.5029 84.4388 19.8658C82.531 21.8046 79.5034 22.5822 76.8595 21.7839C76.2166 21.5869 75.6257 21.2966 75.0865 20.9337C74.9103 20.8093 74.7444 20.6849 74.5785 20.5501C74.4852 20.4775 74.4126 20.4153 74.3297 20.3427C74.1741 20.1975 74.0186 20.042 73.8734 19.8865C73.4276 19.4096 73.0543 18.8808 72.7329 18.3105C72.6292 18.1135 72.5255 17.9269 72.4322 17.7195C71.5924 15.9154 71.3124 13.8107 71.6546 11.8614C71.7375 11.3637 71.8619 10.8868 72.0382 10.4202C72.173 10.0366 72.3388 9.67372 72.5358 9.32119C73.1165 8.28436 73.7905 7.39269 74.5577 6.64617C74.7858 6.42844 75.0139 6.22107 75.2627 6.02407C75.4286 5.89965 75.5946 5.77524 75.7605 5.66118C76.0093 5.48492 76.2685 5.3294 76.5381 5.18424C76.8077 5.03908 77.0772 4.91466 77.3571 4.80061C77.6371 4.68656 77.9275 4.59325 78.2178 4.49993C79.576 4.1163 81.069 4.0541 82.6449 4.35478C83.0493 4.43772 83.4641 4.53104 83.8892 4.65546C88.3683 5.9826 90.5042 9.80851 90.7426 14.298C90.8256 15.7599 90.6183 17.2529 90.1517 18.663C90.1206 18.7771 90.079 18.8911 90.0375 19.0052C89.4984 20.5397 88.6587 21.9602 87.5493 23.1214C87.3937 23.2873 87.2277 23.4532 87.0618 23.6087C86.7301 23.9198 86.3673 24.2101 85.994 24.4693C82.3029 26.9991 78.9642 27.4865 74.6614 26.0142C73.2928 25.5476 72.0901 24.7596 71.074 23.7746C70.5038 23.2355 69.9957 22.6134 69.5499 21.9498C67.9324 19.5754 67.0614 16.5997 67.0096 13.821C66.9059 7.96294 69.7053 3.18316 75.1383 0.953974C75.5323 0.788081 75.9367 0.653294 76.3411 0.528874C79.3271 -0.352432 82.4894 -0.0932269 85.3822 1.01618C85.7243 1.15097 86.0666 1.28576 86.3984 1.44128C86.6265 1.54496 86.8441 1.64865 87.0618 1.77307C87.3314 1.90786 87.601 2.05301 87.8602 2.20854C88.0261 2.30185 88.1817 2.39517 88.3373 2.49885C88.5239 2.6129 88.7104 2.73732 88.8867 2.87211C89.0733 3.0069 89.2496 3.14169 89.4259 3.28684C89.6021 3.432 89.7784 3.58752 89.9546 3.74305C90.1205 3.89857 90.2968 4.06446 90.4627 4.21999C90.8982 4.65546 91.3129 5.12203 91.6966 5.60934C91.821 5.76486 91.9454 5.93076 92.0698 6.08628C92.3498 6.46991 92.6194 6.8639 92.8682 7.27864C93.2104 7.81779 93.511 8.37768 93.7702 8.93757C93.8739 9.1553 93.9671 9.37303 94.0605 9.59077C94.33 10.244 94.5478 10.8972 94.7137 11.54C95.4602 14.5676 95.2425 17.5847 94.2783 20.2909L94.2471 20.322Z" fill="#1D1917"/>
<path d="M83.3956 15.5317C83.3023 15.8427 83.1571 16.1434 82.9497 16.4233C82.8667 16.5374 82.7838 16.6411 82.6905 16.7344C81.4359 18.0615 79.0823 18.103 77.7655 16.8381C77.61 16.6929 77.4856 16.5374 77.3612 16.3611C77.3404 16.33 77.3301 16.3093 77.3094 16.2782C77.2368 16.1641 77.1642 16.0397 77.1123 15.9257C77.0398 15.7805 76.9776 15.625 76.9362 15.4694C76.594 14.3704 76.905 13.2299 77.6204 12.4004C77.6929 12.3175 77.7552 12.2553 77.8278 12.1827C78.1803 11.8302 78.6262 11.5606 79.1238 11.3947C79.1964 11.3636 79.269 11.3429 79.3415 11.3325C79.4763 11.291 79.6111 11.2599 79.7563 11.2392C80.8864 11.0733 81.8921 11.5191 82.5764 12.2553C83.3748 13.1158 83.7481 14.3704 83.3852 15.542L83.3956 15.5317Z" fill="#1D1917"/>
<path d="M115.929 37.7716C116.199 37.6264 116.468 37.4605 116.738 37.2636C116.478 37.4605 116.199 37.6264 115.929 37.7716ZM110.641 33.3132C110.62 33.1473 110.61 32.9711 110.62 32.8052C110.62 32.9814 110.62 33.1577 110.641 33.3132ZM108.215 36.7244C108.287 36.8177 108.36 36.911 108.433 36.994C108.474 37.0458 108.516 37.0873 108.557 37.1288C108.516 37.0873 108.474 37.0458 108.443 36.994C108.36 36.9007 108.287 36.8177 108.215 36.7244Z" fill="white"/>
<path d="M129.201 32.1732C129.128 32.3598 129.035 32.5776 128.828 32.6398C128.776 32.5672 128.755 32.4946 128.735 32.422C128.735 32.3909 128.724 32.3702 128.714 32.3391C128.693 32.2562 128.672 32.1732 128.652 32.1006C128.621 31.9762 128.6 31.8622 128.579 31.7377C128.558 31.6755 128.548 31.6237 128.537 31.5615C128.506 31.4163 128.486 31.2608 128.455 31.1156C128.413 30.8875 128.361 30.6698 128.299 30.4417C128.299 30.421 128.289 30.4002 128.278 30.3795C126.671 24.9258 121.539 19.7624 115.764 19.2439C112.861 18.9951 110.466 19.5757 107.936 21.0688C107.78 21.1621 107.614 21.2658 107.459 21.3694C107.303 21.4731 107.148 21.5872 106.992 21.7012C106.785 21.8568 106.588 22.0226 106.391 22.1885C106.194 22.3544 106.007 22.5411 105.821 22.7173C105.686 22.8521 105.551 22.9869 105.427 23.1321C105.022 23.5675 104.649 24.0445 104.307 24.5421C104.245 24.6355 104.182 24.7288 104.12 24.8221C103.809 25.2887 103.54 25.776 103.291 26.2736C103.208 26.4395 103.135 26.6158 103.052 26.7817C102.917 27.1031 102.793 27.4245 102.669 27.7459C102.617 27.8704 102.575 27.9948 102.544 28.1296C102.306 28.8865 102.14 29.6537 102.047 30.4106C102.026 30.5765 102.015 30.7528 102.005 30.9083C102.005 30.9394 102.005 30.9705 102.005 31.0016C101.995 31.1779 101.984 31.3541 101.984 31.5304C101.984 31.6237 101.984 31.7066 101.984 31.8C102.005 32.6087 102.098 33.407 102.254 34.1847C102.285 34.3402 102.316 34.4957 102.357 34.6409C102.43 34.9519 102.513 35.2526 102.606 35.5533C102.658 35.6984 102.7 35.854 102.752 35.9991C102.803 36.1443 102.855 36.2998 102.917 36.4346C103.031 36.7249 103.156 37.0152 103.291 37.2951C103.425 37.5751 103.571 37.8447 103.726 38.1246C104.182 38.9333 104.721 39.6902 105.344 40.3953C105.478 40.5404 105.603 40.6856 105.748 40.8204C105.935 41.0174 106.132 41.204 106.339 41.3906C106.495 41.5358 106.66 41.6706 106.826 41.8054C106.857 41.8261 106.888 41.8572 106.93 41.8883C107.054 41.9816 107.179 42.0853 107.303 42.1786C107.479 42.3134 107.666 42.4378 107.853 42.5622C107.956 42.6348 108.06 42.697 108.164 42.7592C108.319 42.8629 108.485 42.9562 108.651 43.0496C108.858 43.1636 109.076 43.2777 109.294 43.3813C109.512 43.4954 109.729 43.5887 109.958 43.6924C114.364 45.5587 120.233 43.5576 122.669 39.4621C124.266 36.7767 124.556 32.5776 123.198 29.747C121.435 26.0974 117.215 23.1839 113.078 24.0756C112.042 24.2933 111.098 24.7288 110.258 25.299C110.103 25.4027 109.947 25.5168 109.802 25.6412C109.771 25.6619 109.75 25.6827 109.729 25.7034C109.595 25.8174 109.46 25.9315 109.325 26.0559C109.284 26.0974 109.242 26.1389 109.201 26.1803C109.149 26.2218 109.107 26.2633 109.076 26.3047C108.952 26.4292 108.838 26.5536 108.724 26.678C108.672 26.7299 108.641 26.7713 108.599 26.8128C108.516 26.8957 108.444 26.9891 108.382 27.0824C107.231 28.5547 106.577 30.3691 106.577 32.2043C106.577 32.3598 106.577 32.5154 106.598 32.6605V32.6916C106.609 32.8264 106.619 32.9612 106.64 33.1064C106.64 33.1375 106.65 33.1789 106.66 33.21C106.681 33.3345 106.702 33.4692 106.723 33.5937C106.754 33.7596 106.795 33.9255 106.837 34.0913C106.899 34.2987 106.961 34.5061 107.034 34.7031C107.117 34.9104 107.199 35.1074 107.282 35.3044C107.334 35.4081 107.386 35.5014 107.438 35.6051C107.49 35.7088 107.542 35.8021 107.594 35.8954C107.594 35.9058 107.604 35.9162 107.614 35.9265C107.728 36.1132 107.853 36.2998 107.988 36.4761C108.05 36.5694 108.122 36.6627 108.195 36.7456C108.267 36.8389 108.34 36.9323 108.423 37.0152C108.465 37.067 108.506 37.1085 108.537 37.15C108.662 37.2744 108.786 37.3988 108.91 37.5129C108.993 37.5958 109.087 37.6684 109.17 37.741C109.263 37.8136 109.346 37.8758 109.439 37.9484C109.532 38.0209 109.626 38.0831 109.729 38.1454C109.823 38.2076 109.916 38.2594 110.02 38.3216C110.123 38.3838 110.217 38.4357 110.331 38.4771C110.414 38.529 110.507 38.5601 110.59 38.6016C110.828 38.7052 111.077 38.7986 111.326 38.8711C111.419 38.9022 111.513 38.923 111.606 38.9437C111.948 39.037 112.29 39.0992 112.643 39.1303C112.85 39.1511 113.068 39.1614 113.275 39.1614C114.395 39.1614 115.515 38.8711 116.458 38.2801C116.78 38.0831 117.081 37.855 117.35 37.5855C117.713 37.2329 118.034 36.8182 118.304 36.3413C118.377 36.2168 118.439 36.1028 118.491 35.968C118.542 35.8643 118.584 35.7606 118.625 35.6466C118.646 35.6051 118.657 35.5636 118.667 35.5325C118.708 35.4289 118.739 35.3355 118.771 35.2319C118.771 35.2215 118.771 35.2008 118.771 35.1904C118.812 35.066 118.843 34.9415 118.864 34.8171C118.885 34.7342 118.895 34.6616 118.905 34.589C118.926 34.5061 118.926 34.4335 118.936 34.3609C118.947 34.278 118.957 34.2054 118.957 34.1225C118.988 33.6455 118.936 33.1582 118.822 32.6916C118.76 32.4324 118.677 32.1732 118.584 31.9244C118.532 31.8 118.48 31.6755 118.418 31.5615C118.304 31.323 118.169 31.0949 118.003 30.8772C117.848 30.6594 117.672 30.4521 117.485 30.2654C117.392 30.1618 117.298 30.0788 117.184 29.9855C116.676 29.55 116.054 29.2079 115.359 29.0109C115.017 28.9176 114.675 28.8657 114.323 28.8657C114.24 28.8657 114.146 28.8657 114.063 28.8761C113.711 28.8968 113.358 28.9694 113.027 29.0731C112.954 29.0938 112.881 29.1146 112.809 29.1457C112.581 29.2286 112.363 29.3323 112.145 29.4567C112.083 29.4878 112.021 29.5293 111.969 29.5604C111.502 29.8507 111.077 30.224 110.746 30.6491C110.704 30.7009 110.663 30.7527 110.621 30.815C110.58 30.8668 110.549 30.929 110.507 30.9809C110.466 31.0327 110.434 31.0949 110.403 31.1468C110.3 31.323 110.217 31.5096 110.144 31.6963C110.113 31.7585 110.092 31.8207 110.082 31.8829C110.04 32.0073 110.009 32.1421 109.989 32.2769C109.968 32.3495 109.958 32.4117 109.958 32.4739C109.916 32.8264 109.926 33.1893 109.999 33.5522C110.683 36.9737 114.841 37.8758 116.894 35.5844C116.946 35.5325 116.987 35.4807 117.029 35.4289C117.195 35.2215 117.35 34.9934 117.475 34.7445C117.516 34.672 117.547 34.5994 117.578 34.5268C117.62 34.4439 117.651 34.3609 117.682 34.278C117.723 34.195 117.754 34.1017 117.775 34.0188C117.817 33.9151 117.837 33.801 117.858 33.687C117.879 33.5729 117.889 33.4589 117.9 33.3345C117.91 33.21 117.92 33.096 117.931 32.9819C117.941 32.8679 117.962 32.7538 117.972 32.6398C118.014 32.5879 118.055 32.5879 118.097 32.619C118.117 32.6398 118.138 32.6501 118.149 32.6709C118.2 32.7435 118.231 32.8471 118.252 32.899C118.346 33.21 118.377 33.5626 118.345 33.9255C118.345 33.998 118.335 34.081 118.325 34.1536C118.325 34.1639 118.325 34.1743 118.325 34.195C118.314 34.278 118.304 34.3506 118.283 34.4335C118.252 34.6098 118.211 34.7757 118.159 34.9415C118.107 35.1178 118.045 35.2837 117.983 35.4496C117.682 36.1961 117.226 36.8701 116.707 37.2537C116.448 37.4507 116.168 37.6166 115.899 37.7617C115.805 37.8136 115.722 37.855 115.629 37.8965C115.484 37.9691 115.339 38.0209 115.193 38.0831C115.048 38.1454 114.903 38.1868 114.758 38.2283C114.613 38.2698 114.457 38.3112 114.323 38.3423C114.177 38.3735 114.022 38.3942 113.887 38.4149C113.773 38.4253 113.669 38.4357 113.555 38.446C113.172 38.4771 112.798 38.446 112.425 38.3942C112.342 38.3838 112.249 38.3631 112.166 38.3423C112.073 38.3216 111.99 38.3009 111.907 38.2801C111.824 38.2594 111.751 38.2387 111.679 38.2179C111.585 38.1868 111.492 38.1557 111.388 38.1246C111.222 38.0624 111.056 37.9898 110.901 37.9173C110.735 37.8343 110.58 37.7514 110.424 37.6684C110.269 37.5751 110.123 37.4714 109.978 37.3677C109.906 37.3159 109.833 37.264 109.771 37.2018C109.667 37.1085 109.564 37.0256 109.46 36.9323C109.356 36.8389 109.263 36.7456 109.159 36.6419C109.066 36.5383 108.973 36.4346 108.89 36.3205C108.838 36.2687 108.796 36.2065 108.765 36.1546C108.672 36.0406 108.599 35.9369 108.516 35.8125C108.423 35.6777 108.34 35.5429 108.268 35.3978C108.247 35.377 108.236 35.3459 108.226 35.3252C108.153 35.1904 108.081 35.0556 108.019 34.9208C107.988 34.8482 107.956 34.786 107.925 34.7238C107.894 34.6512 107.863 34.5787 107.842 34.5165C107.801 34.4024 107.759 34.2987 107.728 34.1847C107.697 34.0913 107.666 33.998 107.645 33.9047C107.625 33.8632 107.614 33.8218 107.604 33.7803C107.583 33.7077 107.562 33.6248 107.542 33.5522C107.521 33.4589 107.5 33.3656 107.48 33.2619C107.438 33.0753 107.417 32.8783 107.397 32.6813C107.345 32.1628 107.355 31.6341 107.428 31.126C107.428 31.0638 107.448 31.012 107.459 30.9601C107.459 30.8875 107.48 30.8253 107.49 30.7631C107.511 30.6387 107.542 30.5247 107.573 30.4002C107.594 30.3173 107.614 30.2343 107.635 30.1514C107.687 29.9855 107.739 29.8196 107.801 29.6537C107.832 29.5708 107.863 29.4982 107.894 29.4256C107.977 29.2286 108.06 29.0212 108.164 28.8242C108.236 28.6895 108.319 28.5547 108.392 28.4199C108.413 28.3991 108.423 28.3784 108.433 28.3577C108.485 28.2747 108.537 28.1918 108.599 28.1088C108.817 27.7771 109.066 27.466 109.335 27.1653C109.47 27.0202 109.605 26.875 109.75 26.7402C109.823 26.6676 109.895 26.6054 109.968 26.5432C110.186 26.3462 110.424 26.1596 110.673 25.9937C110.839 25.8797 111.005 25.776 111.171 25.6723C111.212 25.6515 111.243 25.6308 111.285 25.6101C111.378 25.5479 111.471 25.5064 111.575 25.4545C111.71 25.382 111.845 25.3198 111.979 25.2679C112.093 25.2161 112.197 25.1746 112.322 25.1331C112.384 25.102 112.436 25.0813 112.487 25.0709C112.601 25.0295 112.716 24.988 112.84 24.9569C112.985 24.9154 113.141 24.8739 113.286 24.8428C114.406 24.6044 115.536 24.6769 116.614 24.988C116.863 25.0709 117.122 25.1539 117.371 25.2472C117.62 25.3509 117.869 25.4649 118.107 25.5893C118.522 25.7967 118.926 26.0455 119.299 26.3359C119.476 26.4603 119.652 26.5951 119.818 26.7402C120.025 26.9165 120.233 27.1031 120.43 27.3001C120.896 27.7563 121.311 28.254 121.674 28.7931C121.746 28.8865 121.808 28.9798 121.86 29.0835C121.943 29.2182 122.026 29.353 122.099 29.4878C122.14 29.55 122.182 29.6226 122.202 29.6848C122.254 29.7678 122.296 29.8507 122.337 29.9337C122.472 30.1929 122.586 30.4521 122.69 30.7216C122.794 30.9705 122.876 31.2297 122.949 31.4889C122.991 31.6133 123.022 31.7481 123.053 31.8829C123.115 32.1421 123.156 32.4013 123.188 32.6709C123.208 32.8057 123.219 32.9301 123.229 33.0649C123.25 33.3552 123.26 33.6455 123.26 33.9255C123.26 34.2469 123.26 34.5476 123.219 34.8586C123.219 34.983 123.198 35.0971 123.188 35.2215C123.167 35.3355 123.156 35.4496 123.136 35.574C123.115 35.7088 123.094 35.8332 123.073 35.968C123.053 36.0821 123.032 36.1857 123.011 36.2998C122.949 36.5694 122.887 36.8389 122.804 37.0982C122.731 37.3366 122.648 37.5751 122.555 37.8032C122.431 38.1039 122.296 38.4046 122.14 38.6845C122.088 38.7778 122.037 38.8711 121.974 38.9748C121.933 39.0474 121.891 39.12 121.84 39.1926C121.798 39.2651 121.746 39.3377 121.705 39.3999C121.57 39.5969 121.425 39.8043 121.259 39.9909C121.176 40.0946 121.083 40.1983 120.989 40.3123C120.906 40.4056 120.824 40.4886 120.73 40.5819C120.585 40.7271 120.44 40.8722 120.284 40.9966C120.15 41.1107 120.025 41.2247 119.88 41.3388C119.828 41.3803 119.776 41.4217 119.714 41.4632C119.579 41.5669 119.434 41.6602 119.289 41.7639C119.289 41.7743 119.268 41.7846 119.248 41.795C119.082 41.8987 118.916 42.0024 118.739 42.106C118.563 42.2097 118.387 42.303 118.211 42.3964C118.19 42.4067 118.18 42.4171 118.159 42.4171C118.003 42.5 117.848 42.5726 117.682 42.6348C117.599 42.6763 117.526 42.7074 117.443 42.7385C117.412 42.7592 117.392 42.7696 117.361 42.7696C117.205 42.8318 117.049 42.894 116.894 42.9459C116.676 43.0288 116.448 43.1014 116.21 43.1636C115.982 43.2362 115.753 43.288 115.525 43.3399C115.411 43.371 115.297 43.3917 115.183 43.4124C115.059 43.4436 114.945 43.4643 114.82 43.4747C114.717 43.4954 114.613 43.5058 114.509 43.5161C110.756 43.9309 107.521 41.9713 105.23 38.7986C102.959 35.6673 102.212 31.2608 103.705 27.6734C103.809 27.4142 103.923 27.1653 104.037 26.9268C104.089 26.8128 104.141 26.7091 104.193 26.5951C104.317 26.3462 104.442 26.1078 104.576 25.8693C104.659 25.7345 104.732 25.5997 104.815 25.4649C104.898 25.3301 104.981 25.2057 105.064 25.0709C105.147 24.9361 105.23 24.8221 105.323 24.6977C105.416 24.5732 105.499 24.4488 105.592 24.3348C105.686 24.2207 105.779 24.1067 105.872 23.9926C105.976 23.8682 106.08 23.7438 106.194 23.6194C106.38 23.4224 106.577 23.2254 106.774 23.0387C106.878 22.9454 106.992 22.8521 107.106 22.7484C107.22 22.6447 107.324 22.5618 107.448 22.4789C107.562 22.3855 107.676 22.3026 107.801 22.2196C107.925 22.1367 108.039 22.0537 108.164 21.9708C108.257 21.9086 108.361 21.8464 108.464 21.7842C108.568 21.722 108.661 21.6598 108.765 21.6079C108.973 21.4835 109.19 21.3694 109.418 21.2658C110.31 20.8407 111.295 20.4985 112.394 20.2289C113.379 19.9905 114.364 19.9075 115.349 19.9905C115.401 19.9905 115.442 19.9905 115.494 20.0008C115.608 20.0112 115.712 20.0216 115.826 20.0423H115.857C115.981 20.063 116.106 20.0838 116.241 20.1045C116.375 20.1252 116.5 20.146 116.635 20.1771C116.801 20.2082 116.966 20.2497 117.122 20.2911C117.236 20.3222 117.35 20.3533 117.464 20.3844C117.578 20.4156 117.692 20.4467 117.806 20.4881C117.931 20.5296 118.065 20.5711 118.19 20.6126C118.439 20.7059 118.698 20.7992 118.947 20.9132C119.05 20.9547 119.144 20.9962 119.237 21.0377C119.476 21.1517 119.725 21.2658 119.963 21.3902C120.119 21.4731 120.264 21.5561 120.409 21.639C120.575 21.7323 120.741 21.8256 120.896 21.9293C121.031 22.0123 121.155 22.0952 121.29 22.1885C121.435 22.2818 121.57 22.3752 121.715 22.4892C121.85 22.5929 121.985 22.6862 122.13 22.8003C122.399 23.0076 122.659 23.2254 122.918 23.4638C123.042 23.5779 123.167 23.6919 123.302 23.8164C123.426 23.9304 123.54 24.0445 123.664 24.1793C123.758 24.2829 123.851 24.3762 123.955 24.4799C124.048 24.5836 124.141 24.6769 124.224 24.7806C124.401 24.988 124.577 25.1953 124.743 25.4027C124.992 25.7241 125.23 26.0455 125.448 26.367C128.714 31.2193 128.952 36.7664 125.603 41.5773C122.908 45.455 118.325 47.4042 113.68 47.4457C113.244 47.4457 112.798 47.425 112.363 47.3731C112.207 47.3628 112.042 47.342 111.886 47.3109C111.845 47.3109 111.803 47.3006 111.762 47.2902C111.627 47.2695 111.492 47.2487 111.357 47.2176C111.212 47.1865 111.067 47.1658 110.922 47.1347C110.756 47.0932 110.58 47.0621 110.414 47.0103C110.289 46.9791 110.165 46.948 110.04 46.9169C109.626 46.8029 109.211 46.6681 108.796 46.5229C108.579 46.44 108.35 46.357 108.122 46.2637C107.905 46.1704 107.676 46.0771 107.459 45.9734C107.241 45.8697 107.023 45.7661 106.806 45.6624C106.598 45.5483 106.38 45.4343 106.173 45.3202C105.966 45.1958 105.748 45.0817 105.551 44.947C105.354 44.8225 105.167 44.6981 104.981 44.5737C104.836 44.47 104.68 44.3663 104.545 44.2523C104.452 44.1901 104.369 44.1175 104.286 44.0449C104.203 43.9827 104.12 43.9205 104.048 43.8479C103.965 43.7857 103.892 43.7235 103.819 43.6613C103.674 43.5472 103.539 43.4228 103.405 43.2984C100.159 40.2501 98.5834 36.1546 98.5938 32.0903C98.5938 31.8414 98.5938 31.5822 98.6146 31.3334C98.6249 31.1053 98.6457 30.8668 98.6664 30.6387C98.6976 30.3691 98.7286 30.0892 98.7701 29.8196C98.8012 29.5811 98.8427 29.353 98.8945 29.1146C98.936 28.9176 98.9775 28.7102 99.0189 28.5132C99.05 28.368 99.0915 28.2125 99.133 28.0777C99.2159 27.7667 99.2989 27.466 99.4026 27.1653C99.444 27.0409 99.4855 26.9061 99.5374 26.7817C99.5892 26.6262 99.6514 26.4706 99.7137 26.3151C99.7655 26.2011 99.807 26.0974 99.8485 25.9833C99.921 25.8278 99.9832 25.6619 100.056 25.5168C100.097 25.4338 100.139 25.3509 100.18 25.2679C100.232 25.1539 100.284 25.0502 100.346 24.9465C100.429 24.7806 100.522 24.6147 100.616 24.4488C100.657 24.3762 100.699 24.3037 100.74 24.2415C100.802 24.1274 100.864 24.0237 100.937 23.92C101.279 23.3705 101.653 22.8417 102.078 22.3337C102.15 22.2404 102.223 22.1471 102.306 22.0641C102.409 21.9397 102.513 21.8256 102.627 21.7012C102.71 21.6183 102.783 21.525 102.866 21.442C103 21.2969 103.135 21.1621 103.28 21.0273C103.508 20.8096 103.747 20.5918 103.996 20.3844C104.162 20.2393 104.338 20.1045 104.504 19.9697C104.535 19.9386 104.576 19.9179 104.607 19.8868C104.784 19.752 104.97 19.6172 105.157 19.4928C108.496 17.1806 113.483 15.9261 117.454 16.8903C117.62 16.9318 117.786 16.9733 117.951 17.0251C118.066 17.0562 118.169 17.0873 118.283 17.1184C118.667 17.2325 119.04 17.3569 119.413 17.5021C119.538 17.5435 119.652 17.5954 119.766 17.6368C120.191 17.8027 120.606 17.9997 121.02 18.2071C121.176 18.2901 121.342 18.373 121.497 18.4559C121.974 18.7048 122.431 18.9847 122.866 19.2854C123.011 19.3891 123.156 19.4824 123.302 19.5965C123.447 19.7001 123.592 19.8038 123.727 19.9179C123.83 20.0008 123.944 20.0838 124.048 20.1771C124.349 20.4259 124.649 20.6851 124.929 20.9651C125.054 21.0791 125.168 21.1932 125.282 21.3176C125.427 21.4628 125.551 21.6079 125.697 21.7531C125.769 21.8256 125.831 21.8982 125.894 21.9812C126.485 22.6551 127.003 23.3809 127.47 24.1689C127.542 24.2829 127.604 24.397 127.667 24.5214C127.76 24.6769 127.843 24.8428 127.926 25.0087C128.081 25.3094 128.226 25.6204 128.361 25.9419C128.382 25.9937 128.403 26.0352 128.413 26.087C128.496 26.2633 128.569 26.4499 128.631 26.6365C128.641 26.6573 128.652 26.6884 128.662 26.7091C128.755 26.9372 128.828 27.1757 128.9 27.4245C129.263 28.6065 129.678 31.0845 129.211 32.2458L129.201 32.1732Z" fill="#1D1917"/>
<path d="M116.116 35.4177C115.96 35.5525 115.794 35.6665 115.628 35.7702C115.462 35.8739 115.286 35.9465 115.11 36.0087C115.017 36.0398 114.934 36.0709 114.84 36.0916C114.249 36.2472 113.627 36.2264 113.057 36.0502C112.953 36.019 112.86 35.9879 112.756 35.9465C112.673 35.9154 112.601 35.8843 112.518 35.8428C112.476 35.8221 112.425 35.8013 112.383 35.7806C112.321 35.7495 112.269 35.7184 112.207 35.6873C112.186 35.6665 112.155 35.6562 112.134 35.6354C112.051 35.5836 111.979 35.5317 111.906 35.4799C111.823 35.4177 111.74 35.3451 111.657 35.2725C111.481 35.1066 111.315 34.9304 111.18 34.7334C111.139 34.6815 111.108 34.6297 111.077 34.5675C111.056 34.5467 111.046 34.5156 111.025 34.4949C110.983 34.4327 110.963 34.3809 110.931 34.3186C110.911 34.2772 110.89 34.2357 110.869 34.1839C110.828 34.1009 110.797 34.018 110.766 33.935C110.724 33.8313 110.703 33.7277 110.672 33.624C110.652 33.5203 110.631 33.4062 110.621 33.2922C110.6 33.1263 110.589 32.95 110.6 32.7841C110.61 32.5664 110.652 32.3383 110.703 32.1309C110.755 31.9236 110.838 31.7162 110.942 31.5192C111.046 31.3326 111.16 31.1459 111.305 30.9697C111.377 30.8867 111.44 30.8038 111.512 30.7312C111.585 30.6483 111.668 30.5757 111.751 30.5031C111.813 30.4409 111.875 30.3891 111.948 30.3372C112.456 29.9432 113.078 29.6737 113.71 29.5907C113.772 29.5803 113.824 29.57 113.886 29.57C114.374 29.5285 114.871 29.6011 115.338 29.7981C117.661 30.7934 117.94 33.8002 116.095 35.397L116.116 35.4177Z" fill="#1D1917"/>
<path d="M131.148 51.2919L75.9163 46.1389C75.3875 46.087 75.087 45.5064 75.3565 45.0502L79.452 37.9997C79.5971 37.7509 79.8667 37.6161 80.1467 37.6369L135.379 42.7899C135.907 42.8417 136.208 43.4224 135.938 43.8786L131.843 50.929C131.698 51.1779 131.428 51.3126 131.148 51.2919Z" fill="#1D1917"/>
<path d="M72.7438 154H59.5657C59.1613 154 58.8398 153.679 58.8398 153.274V51.9655C58.8398 51.6337 59.0576 51.3538 59.3686 51.2708L72.5467 47.6419C73.0133 47.5175 73.4695 47.8597 73.4695 48.3366V153.274C73.4695 153.679 73.1481 154 72.7438 154Z" fill="#1D1917"/>
<path d="M72.4865 46.3046L59.3394 49.9231C59.0388 50.006 58.7277 49.892 58.5514 49.6328L54.0931 43.163C53.8132 42.7482 54.0206 42.1883 54.4975 42.0536L67.6445 38.435C67.9451 38.3521 68.2562 38.4661 68.4325 38.7253L72.8909 45.1952C73.1708 45.6099 72.9634 46.1698 72.4865 46.3046Z" fill="#1D1917"/>
<path fill-rule="evenodd" clip-rule="evenodd" d="M130.891 154H75.5246C75.1202 154 74.7988 153.679 74.7988 153.274V48.181C74.7988 47.7559 75.1617 47.4242 75.5868 47.4553L130.954 52.5046C131.327 52.5357 131.617 52.8572 131.617 53.2304V153.274C131.617 153.679 131.296 154 130.891 154ZM84.2949 81.7019L84.2959 81.7054C84.1267 81.2146 83.788 80.6639 83.2995 80.0533C83.1543 79.8667 82.9574 79.6075 82.7189 79.2757C82.7085 79.2757 82.5945 79.1409 82.3664 78.8609C82.242 78.7158 82.1693 78.5914 82.159 78.4877C82.1486 78.4151 82.159 78.3322 82.1797 78.2596C82.2108 78.1455 82.2109 78.073 82.2109 78.0211C82.2109 77.9796 82.1901 77.9071 82.1486 77.8034C82.1175 77.7308 82.1072 77.6479 82.1176 77.5649C82.1591 77.399 82.2835 77.3264 82.4908 77.3472C82.6878 77.3679 82.8433 77.4612 82.947 77.6168C82.9781 77.6582 83.0092 77.7826 83.061 78.0004C83.1025 78.1974 83.1544 78.3114 83.2269 78.3633C83.3203 78.4358 83.5069 78.467 83.7972 78.467C84.0772 78.467 84.2534 78.4358 84.3053 78.384C84.3882 78.3011 84.4193 78.0937 84.3882 77.7826C84.326 77.1813 84.0668 76.7043 83.6106 76.3518C83.1647 76.0097 82.6463 75.8541 82.0553 75.8956C81.6095 75.9163 81.2569 76.0822 80.9977 76.3726C80.7593 76.6421 80.6038 77.005 80.552 77.4405C80.5001 77.8656 80.5416 78.3114 80.666 78.7365C80.8008 79.1927 81.0081 79.5971 81.2881 79.9392C81.342 80.0111 81.4504 80.1064 81.593 80.2317L81.6613 80.2918C81.8272 80.4369 81.9516 80.5613 82.0346 80.665L82.0352 80.6661C82.0868 80.7487 82.1385 80.8313 82.1901 80.9242C82.2418 81.0173 82.3039 81.1001 82.3659 81.1828L82.3664 81.1834C82.4079 81.2353 82.5219 81.3493 82.6981 81.5256C82.8226 81.6397 82.8951 81.7433 82.9262 81.8367C83.0299 82.1684 82.9988 82.4276 82.8329 82.635C82.667 82.8424 82.4493 82.8735 82.159 82.7387C82.0138 82.6557 81.9205 82.4899 81.9101 82.241C81.8894 81.9403 81.8479 81.7537 81.7754 81.6708C81.7028 81.5878 81.5058 81.5152 81.1948 81.4634C80.8734 81.4012 80.6763 81.4012 80.583 81.4634C80.5 81.5152 80.4482 81.7019 80.4482 82.0025C80.4378 82.5521 80.6141 83.0497 80.9977 83.4852C81.3503 83.8896 81.7753 84.1281 82.273 84.2214C82.667 84.2939 83.0506 84.2628 83.4343 84.1384C83.7971 84.014 84.0565 83.8481 84.1912 83.6407C84.3157 83.423 84.3882 83.1016 84.3986 82.6661C84.4089 82.274 84.3679 81.9537 84.2959 81.7054L84.3048 81.7315L84.2949 81.7019ZM88.445 84.7299C88.7249 84.7714 88.9633 84.7403 89.1396 84.6677V84.647C89.1396 84.647 89.1085 81.9512 89.0567 76.5493C88.953 76.4664 88.7767 76.4042 88.5382 76.3524C88.2998 76.3109 88.1131 76.3109 87.9679 76.342C87.8954 76.4664 87.8747 76.6427 87.8747 76.8708V78.7267C87.8747 78.8337 87.8801 78.9687 87.8856 79.1082C87.8973 79.4011 87.9098 79.7133 87.8747 79.8257C87.8643 79.8568 87.8436 79.8879 87.8229 79.8879C87.7711 79.919 87.6984 79.8983 87.6673 79.8361C87.4392 79.4421 87.1903 78.3534 86.9622 77.2337C86.8586 76.7152 86.786 76.456 86.6823 76.342C86.5603 76.2113 86.4311 76.1977 86.1284 76.166C86.0708 76.16 86.007 76.1533 85.9358 76.145L85.9213 76.1433C85.5657 76.1027 85.3008 76.0724 85.1167 76.0724H85.1064C85.0649 76.0724 85.0441 76.1139 85.0441 76.1554C85.0649 76.342 85.0856 76.8915 85.0856 77.7832C85.0856 78.4467 85.0752 78.8511 85.0545 78.9755L85.0543 78.9762C85.0232 79.0589 84.9922 79.1416 84.9509 79.2244C84.899 79.3281 84.8782 79.4006 84.8782 79.4421L84.878 79.4587L84.8777 79.4735L84.8777 79.4737C84.8763 79.5385 84.8741 79.634 84.9093 79.722C84.9265 79.7734 84.9436 79.8142 84.9578 79.848C84.978 79.8961 84.9922 79.9301 84.9922 79.9605C85.013 80.1575 85.0234 80.3545 85.0026 80.5411C84.9715 80.8522 84.9715 81.7439 85.013 82.2104C85.0545 82.6874 85.0545 83.7864 85.0545 83.8486C85.0545 84.056 85.1064 84.2323 85.1893 84.3671C85.3137 84.4085 85.4796 84.45 85.687 84.45C85.9151 84.4604 86.0809 84.4396 86.1846 84.3878C86.2468 84.0767 86.2987 83.5791 86.3298 82.9051C86.3579 82.3495 86.3956 81.7318 86.4169 81.3823L86.4169 81.3822L86.4169 81.3816L86.417 81.3814L86.417 81.3806C86.4271 81.2158 86.4334 81.111 86.4334 81.101C86.4438 80.987 86.4957 80.9144 86.589 80.8937C86.6771 80.9877 87.0448 82.1102 87.3621 83.0788L87.3622 83.0789L87.3622 83.079L87.3622 83.0791L87.3622 83.0792L87.3623 83.0793C87.6049 83.8199 87.818 84.4704 87.8539 84.5018C87.968 84.6159 88.165 84.6885 88.445 84.7299ZM94.1129 82.8838C94.0818 82.8216 94.03 82.7594 93.9159 82.6868C93.8123 82.6246 93.7292 82.5002 93.6877 82.3446V82.3135C93.6774 82.241 93.6152 81.7848 93.5116 80.9553C93.4701 80.6339 93.4078 80.1777 93.3145 79.5971L93.2871 79.4161L93.2871 79.416C93.2157 78.9444 93.1544 78.5393 93.1176 78.2077C93.1137 78.1652 93.1084 78.1255 93.1032 78.0871C93.0946 78.0226 93.0864 77.9617 93.0864 77.8967C93.0761 77.7308 93.0657 77.596 93.0449 77.4923C93.0034 77.1605 92.9413 76.9635 92.8584 76.8806C92.7028 76.7354 92.288 76.6628 91.6037 76.6525C91.2823 76.6525 91.0749 76.6732 90.9816 76.725C90.9609 76.725 90.9505 76.7458 90.9401 76.7665C90.6602 77.7515 90.4218 79.0475 90.2351 80.665C90.1937 81.0175 90.0899 81.6915 89.924 82.7075C89.7893 83.5163 89.7063 84.1695 89.6648 84.6568C89.6648 84.6879 89.6752 84.7294 89.7064 84.7294C89.8826 84.7812 90.1625 84.8019 90.7328 84.8227C90.7639 84.8227 90.795 84.8123 90.8157 84.7812C90.8883 84.6775 90.9401 84.4702 90.9609 84.1695C90.9816 83.8688 91.0543 83.6718 91.1683 83.5889C91.3031 83.4955 91.5209 83.4852 91.8319 83.5578C91.9626 83.5862 92.0684 83.6364 92.1697 83.6845L92.1698 83.6845C92.2533 83.7242 92.3338 83.7624 92.4228 83.7858C92.4355 83.7901 92.4482 83.7926 92.4607 83.795C92.5092 83.8046 92.5536 83.8134 92.5784 83.9206C92.6406 84.128 92.6925 84.3354 92.7339 84.5531C92.7858 84.8538 92.8894 85.0404 93.0242 85.1234C93.1382 85.1959 93.3145 85.2374 93.5426 85.2478C93.7603 85.2478 93.9263 85.2374 94.03 85.1752C94.0507 85.1648 94.0714 85.1337 94.061 85.113C94.061 85.0093 94.0299 84.8331 93.9677 84.5738C93.9055 84.2939 93.8848 84.0451 93.8952 83.8377C93.8952 83.7444 93.9469 83.5577 94.061 83.3193C94.175 83.0912 94.1336 82.9564 94.0921 82.8631L94.1129 82.8838ZM92.1948 82.2513V82.2617C92.1222 82.355 92.0911 82.3861 91.8423 82.355C91.7913 82.346 91.7386 82.3379 91.6881 82.3301L91.6878 82.3301L91.6864 82.3299L91.6861 82.3298C91.563 82.3109 91.4538 82.2941 91.4171 82.2721C91.3964 82.2617 91.3964 82.2306 91.3964 82.2099C91.3964 82.0647 91.3964 81.7744 91.4171 81.4426C91.4251 81.1814 91.439 80.9685 91.4497 80.8039L91.4498 80.803L91.4498 80.8029C91.4531 80.7523 91.4561 80.7064 91.4585 80.665C91.5104 80.0533 91.6141 79.3897 91.7696 79.1201C91.78 79.0994 91.8112 79.0994 91.8319 79.1097L91.8525 79.1305L91.8837 79.1616C91.9459 79.3275 92.0704 80.2503 92.2155 81.3804C92.2674 81.847 92.2674 82.158 92.2155 82.2513H92.1948ZM95.9708 85.2273C95.9915 85.1443 96.033 84.4807 96.0848 83.2469V83.2365C96.1678 81.4013 96.0019 77.2333 95.9708 77.1503C95.9397 77.0674 95.5872 76.9844 95.328 76.9637C95.0273 76.943 94.8302 76.9948 94.7369 77.1296C94.6539 77.2437 94.6229 77.5547 94.654 78.0731C94.6747 78.6848 94.6955 79.8772 94.6955 81.6502C94.6955 83.1951 94.7266 84.3771 94.7888 85.1443C94.9028 85.2376 95.1101 85.2791 95.3797 85.2998C95.6493 85.3206 95.8464 85.2998 95.9708 85.2273ZM100.345 85.5799C100.251 85.7043 98.9967 85.5177 98.2295 85.3933C98.1347 85.3795 98.0469 85.3671 97.9657 85.3556H97.9657C97.4335 85.2801 97.1845 85.2448 97.1305 85.1548C97.0683 85.0719 96.9854 84.8334 96.9957 84.3772V84.3767C96.9957 84.2684 96.9957 82.4996 97.0475 81.8681C97.089 81.0282 97.0579 79.6804 97.0165 78.7783C97.0165 78.7635 97.0138 78.6563 97.0104 78.5184C97.0043 78.2699 96.9957 77.9215 96.9957 77.8348C96.9957 77.3993 97.0683 77.1712 97.2445 77.1505C97.3586 77.1297 98.2917 77.2956 98.3643 77.3579C98.4369 77.4304 98.4887 77.6274 98.5095 77.9696C98.5095 78.0629 98.5406 80.9453 98.5613 81.64V83.0086C98.5613 83.0397 98.5613 83.2989 98.5302 83.5374L98.5246 83.5984C98.5055 83.8015 98.493 83.9347 98.6442 84.0765C98.696 84.1209 98.8795 84.1389 99.1008 84.1606C99.1899 84.1693 99.2851 84.1787 99.3804 84.1906C99.7536 84.232 100.158 84.2942 100.262 84.3357C100.303 84.3461 100.334 84.3876 100.334 84.429C100.345 84.5223 100.428 85.497 100.345 85.6006V85.5799ZM89.7786 64.8639C89.8927 65.0194 89.9757 65.1439 90.0276 65.2476L90.0378 65.2683C91.1058 67.0724 91.4064 68.9076 90.9399 70.7842C90.6288 72.0181 90.1208 72.889 89.4158 73.397C88.6485 73.9466 87.3629 74.1643 85.5795 74.0399C84.9989 73.9984 84.2005 73.9051 83.1948 73.7703C81.9609 73.594 81.1523 73.4904 80.779 73.4489C80.582 72.8786 80.5301 71.2819 80.5819 68.6691C80.7271 60.8514 80.7997 56.7248 80.779 56.3101C80.7272 55.1903 80.7375 54.5164 80.7894 54.2883C80.9034 53.7802 81.2766 53.521 81.8884 53.5106C82.4482 53.5003 83.6925 53.6765 85.6107 54.0291C86.8652 54.2468 87.8087 54.5993 88.4516 55.0659C88.887 55.3977 89.3017 55.9472 89.675 56.7352C90.0171 57.4713 90.2348 58.166 90.3074 58.8296C90.4318 59.9182 90.3178 60.9447 89.9549 61.8779C89.9031 62.0023 89.7372 62.303 89.4469 62.7695C89.2292 63.1117 89.1358 63.4124 89.1358 63.6508C89.1358 63.8478 89.2499 64.107 89.478 64.4388C89.5195 64.501 89.6231 64.6462 89.7786 64.8639ZM84.8798 57.1965C84.5454 57.212 84.203 57.2279 84.1383 57.3573C84.083 57.4678 84.0926 57.8142 84.1057 58.2894V58.2895C84.1172 58.7056 84.1314 59.2206 84.1072 59.7627C84.0657 60.6648 84.0761 61.3076 84.2835 61.6601C84.4287 61.9193 84.8952 62.023 85.2788 62.023C85.6313 62.023 85.9216 61.9401 86.1497 61.7845C86.6474 61.432 86.8964 60.6751 86.9171 59.5346C86.9378 58.363 86.6578 57.6372 86.0876 57.3573C85.7869 57.2121 85.4654 57.1499 85.1544 57.181C85.0678 57.1878 84.9741 57.1922 84.8798 57.1965ZM86.4504 70.5561C86.9066 70.0066 87.0311 69.2393 87.0415 68.4825H87.0311V68.2751V68.1196C86.9958 67.9456 86.9691 67.7722 86.9426 67.6004C86.8602 67.0655 86.78 66.5453 86.4504 66.0666C85.9631 65.486 85.0404 65.175 84.4079 65.5379C84.3697 65.5532 84.337 65.5798 84.3059 65.6052C84.2949 65.6142 84.284 65.623 84.2731 65.6312C84.1902 65.7141 84.1176 65.7971 84.0658 65.9008C84.1285 66.3271 84.1153 66.7308 84.102 67.1391V67.1392C84.0933 67.4061 84.0845 67.675 84.0968 67.9537V68.1818C84.0968 68.7935 84.1072 69.4052 84.1487 69.9962C84.1487 70.0792 84.1591 70.1621 84.1695 70.2347C84.1751 70.2853 84.1837 70.3328 84.1921 70.3789C84.1992 70.4179 84.2061 70.4559 84.2108 70.4939C84.2316 70.7428 84.5012 71.0331 84.7708 70.9501C84.8828 70.9403 84.9971 70.9342 85.1117 70.9281C85.6016 70.9019 86.0975 70.8754 86.4504 70.5561ZM102.136 58.9226C101.95 58.2175 101.659 57.5436 101.276 56.9007C100.84 56.175 100.415 55.7188 100 55.5114C99.3264 55.1796 98.2688 55.0345 96.838 55.0552C95.8737 55.0759 95.1272 55.2626 94.6191 55.6462C94.1837 55.9676 93.7689 56.5379 93.406 57.3777C92.8046 58.7359 92.4833 59.5447 92.4418 59.8039C92.2034 61.2554 92.2448 63.8786 92.5662 67.663C92.6077 68.0259 92.6181 68.7206 92.6078 69.7471C92.6078 70.5143 92.6595 71.1468 92.7736 71.6548C92.9083 72.1836 93.1573 72.7435 93.5202 73.3345C93.9038 73.967 94.277 74.3713 94.6399 74.5372C95.3553 74.9001 96.3403 75.0453 97.5845 74.9727C98.6628 74.9105 99.4922 74.7446 100.052 74.475C101.058 74.0084 101.721 72.8576 102.033 71.0224C102.24 69.7574 102.292 67.9948 102.188 65.7138C102.167 65.3198 102.209 64.1378 102.312 62.1575C102.385 60.6955 102.312 59.6172 102.115 58.9226H102.136ZM98.9738 62.0745C98.9624 62.4434 98.9524 62.7524 98.9443 63.0023L98.9443 63.0025C98.9303 63.4339 98.922 63.6896 98.922 63.7749C98.922 66.2737 98.8702 68.1504 98.7872 69.4049C98.7354 70.1411 98.5591 70.7321 98.2792 71.1572C97.9059 71.7171 97.4186 71.8829 96.7965 71.6652C96.3195 71.5097 95.9878 70.7735 95.8115 69.4464C95.6664 68.4303 95.6353 67.352 95.6975 66.1907C95.6975 66.056 95.853 64.7599 96.1744 62.2819C96.194 62.1544 96.2229 61.8135 96.2698 61.2592L96.278 61.1621C96.3091 60.6748 96.361 60.2912 96.4128 60.0112C96.5684 59.161 96.9002 58.7048 97.3979 58.653C98.3103 58.57 98.8287 59.1299 98.9635 60.3534C99.005 60.7681 99.0153 61.3384 98.9738 62.0745ZM113.16 67.0514C113.274 67.2069 113.357 67.3417 113.408 67.435H113.44C114.508 69.2184 114.819 71.0328 114.342 72.8784C114.031 74.1018 113.523 74.9624 112.818 75.4601C112.04 76.0096 110.754 76.217 108.971 76.0926C108.805 76.0807 108.622 76.0655 108.421 76.0489C107.918 76.0071 107.305 75.9563 106.586 75.9267C106.456 75.9211 106.327 75.9162 106.2 75.9113C105.137 75.8705 104.207 75.8349 104.17 75.5016C104.098 74.9209 103.911 73.3553 103.963 70.784C104.108 63.07 104.181 59.0056 104.16 58.5909C104.121 57.7615 104.147 57.1861 104.162 56.8511C104.167 56.7422 104.17 56.6587 104.17 56.6001C104.189 55.8397 104.583 55.8374 105.12 55.8343C105.169 55.834 105.218 55.8338 105.269 55.8329C105.829 55.8329 107.073 55.9988 108.992 56.3513C110.246 56.569 111.19 56.9216 111.832 57.3778C112.268 57.6992 112.683 58.2487 113.056 59.0263C113.398 59.7521 113.616 60.4468 113.688 61.1C113.813 62.1783 113.699 63.184 113.336 64.1068C113.284 64.2312 113.118 64.5215 112.828 64.9881C112.783 65.0567 112.738 65.1213 112.696 65.1827C112.533 65.4185 112.403 65.6077 112.403 65.7968C112.403 65.9938 112.631 66.3152 112.859 66.6367C112.879 66.667 112.914 66.7147 112.963 66.7809C113.014 66.8503 113.08 66.94 113.16 67.0514ZM108.535 59.4825C108.141 59.5136 107.882 59.5655 107.654 59.8143H107.664C107.502 60.0054 107.527 60.4623 107.563 61.1025C107.58 61.4001 107.599 61.7372 107.602 62.1057C107.604 62.2821 107.603 62.4472 107.602 62.6013C107.597 63.2173 107.594 63.6568 107.81 63.9305C107.986 64.169 108.287 64.2623 108.67 64.2623C109.023 64.2623 109.313 64.1794 109.541 64.0238C110.028 63.6713 110.277 62.9352 110.298 61.805C110.319 60.6542 110.039 59.9387 109.469 59.6588C109.168 59.5136 108.846 59.4618 108.535 59.4825ZM108.193 73.0754C108.971 73.2413 109.707 73.1583 110.07 72.7954C110.495 72.3911 110.682 71.572 110.63 70.3278C110.619 70.1308 110.599 69.9338 110.568 69.7368C110.454 69.1147 110.288 68.4615 109.748 68.0364C109.095 67.6009 108.017 67.0721 107.685 67.632C107.348 68.3001 107.477 69.0979 107.609 69.9089C107.687 70.3943 107.767 70.8845 107.747 71.3542C107.737 71.5201 107.737 71.6757 107.737 71.8312C107.736 71.8906 107.734 71.9483 107.733 72.004C107.723 72.3754 107.715 72.6561 107.779 72.7643C107.862 72.9199 108.017 73.0443 108.193 73.0754Z" fill="#1D1917"/>
</svg>
