<svg width="160" height="154" viewBox="0 0 160 154" fill="none" xmlns="http://www.w3.org/2000/svg">
<path fill-rule="evenodd" clip-rule="evenodd" d="M24.5074 88.1826C29.2369 86.1599 34.2452 90.3866 33.0632 95.3958C38.0005 96.8735 39.1498 103.347 35.0099 106.42C37.848 110.724 34.5643 116.424 29.4159 116.119C28.8295 121.244 22.6372 123.495 18.8961 119.954C15.1549 123.495 8.96275 121.244 8.37636 116.119C3.2279 116.424 -0.0676047 110.724 2.78223 106.42C-1.35765 103.347 -0.220096 96.8618 4.72899 95.3958C3.53277 90.3764 8.57569 86.1427 13.3137 88.195C15.622 83.5902 22.1914 83.586 24.5074 88.1826ZM18.6491 94.1876C19.7515 94.1876 20.4435 94.727 20.4435 96.709L20.4317 96.6973V97.9287C20.4317 99.6996 19.646 100.262 18.3559 100.262H16.9955V103.417H18.1683C19.7515 103.417 20.4435 104.168 20.4435 106.22V107.956C20.4435 109.903 19.7515 110.442 18.6491 110.442C17.5467 110.442 16.8548 109.844 16.8548 108.273V106.22H13.5711V108.05C13.5711 111.58 15.3302 113.597 18.7429 113.597C22.1557 113.597 23.9149 111.58 23.9149 108.05V106.314C23.9149 104.074 23.223 102.444 21.4873 101.682C23.1643 100.99 23.9149 99.5119 23.9149 97.1429V96.58C23.9149 93.05 22.144 91.0328 18.7429 91.0328C15.3419 91.0328 13.5711 93.05 13.5711 96.58V97.7762H16.8548V96.3572C16.8548 94.7857 17.5467 94.1876 18.6491 94.1876Z" fill="#1D1917"/>
<path fill-rule="evenodd" clip-rule="evenodd" d="M62.6628 12.8796L75.9329 10.209C75.8916 10.3809 75.8697 10.5603 75.8697 10.7448C75.8697 12.0078 76.8936 13.0317 78.1566 13.0317C79.4197 13.0317 80.4435 12.0078 80.4435 10.7448C80.4435 10.238 80.2786 9.76966 79.9996 9.39055L126.473 0.0377559C127.798 -0.231981 128.948 0.987697 128.596 2.28947V2.31292C125.371 14.1344 124.937 26.3547 127.13 38.0824C129.461 48.872 134.009 59.1804 140.651 68.3029C139.702 68.5813 139.009 69.4585 139.009 70.4977C139.009 71.7607 140.033 72.7846 141.296 72.7846C142.114 72.7846 142.832 72.355 143.236 71.7091C157.834 91.1428 162.845 116.161 156.824 139.726C156.649 140.407 156.097 140.923 155.405 141.063L143.868 143.396C143.913 143.216 143.937 143.028 143.937 142.834C143.937 141.571 142.913 140.547 141.65 140.547C140.387 140.547 139.363 141.571 139.363 142.834C139.363 143.352 139.536 143.829 139.826 144.213L123.963 147.42L121.372 147.947L91.6419 153.964C90.3519 154.222 89.2026 153.061 89.5075 151.782C91.2701 144.205 91.9028 136.495 91.4519 128.884C91.8404 129.189 92.33 129.371 92.862 129.371C94.125 129.371 95.1489 128.347 95.1489 127.084C95.1489 125.821 94.125 124.797 92.862 124.797C92.1981 124.797 91.6003 125.08 91.1825 125.531C90.9186 122.93 90.5277 120.345 90.0118 117.784C87.5841 105.704 82.377 94.1877 74.5781 84.2192C67.0137 74.5438 61.9005 63.4142 59.379 51.7334V51.71C57.1742 39.9588 57.5964 27.7151 60.8215 15.8701C60.8633 15.7098 60.9062 15.5484 60.9492 15.3866C61.0508 15.0041 61.153 14.6191 61.2437 14.24C61.4196 13.5481 61.9591 13.0203 62.651 12.8796H62.6628ZM93.4719 68.0582C93.4719 69.3212 92.448 70.3451 91.185 70.3451C89.922 70.3451 88.8981 69.3212 88.8981 68.0582C88.8981 66.7952 89.922 65.7713 91.185 65.7713C92.448 65.7713 93.4719 66.7952 93.4719 68.0582ZM109.681 37.4961C110.944 37.4961 111.968 36.4722 111.968 35.2092C111.968 33.9462 110.944 32.9223 109.681 32.9223C108.418 32.9223 107.394 33.9462 107.394 35.2092C107.394 36.4722 108.418 37.4961 109.681 37.4961ZM132.034 106.795C132.034 108.058 131.01 109.082 129.747 109.082C128.484 109.082 127.46 108.058 127.46 106.795C127.46 105.532 128.484 104.508 129.747 104.508C131.01 104.508 132.034 105.532 132.034 106.795ZM69.4752 39.3721C70.7382 39.3721 71.7621 38.3482 71.7621 37.0852C71.7621 35.8222 70.7382 34.7983 69.4752 34.7983C68.2122 34.7983 67.1883 35.8222 67.1883 37.0852C67.1883 38.3482 68.2122 39.3721 69.4752 39.3721Z" fill="#1D1917"/>
</svg>
