<svg width="150" height="154" viewBox="0 0 150 154" fill="none" xmlns="http://www.w3.org/2000/svg">
<path fill-rule="evenodd" clip-rule="evenodd" d="M23.8414 46.4431C28.4411 44.476 33.3119 48.5866 32.1622 53.4583C36.964 54.8954 38.0818 61.1914 34.0556 64.1797C36.8158 68.3656 33.6222 73.9088 28.6151 73.6122C28.0448 78.5965 22.0226 80.7864 18.3841 77.3419C14.7457 80.7864 8.7235 78.5965 8.15321 73.6122C3.14611 73.9088 -0.0588848 68.3656 2.7127 64.1797C-1.31351 61.1914 -0.207189 54.884 4.60602 53.4583C3.44264 48.5767 8.3471 44.4592 12.955 46.4552C15.1999 41.9768 21.589 41.9728 23.8414 46.4431ZM16.1384 54.2228C16.1384 52.6944 16.8113 52.1128 17.8835 52.1128C18.9556 52.1128 19.6285 52.6374 19.6285 54.565C19.6285 57.6461 17.9743 59.4513 16.3118 61.2655C14.6325 63.098 12.9448 64.9397 12.9448 68.115V70.7497H22.6967V67.6815H16.3209C16.2867 67.5333 16.2867 67.3736 16.2867 67.2253V67.2253C16.2867 65.7463 17.4697 64.4441 18.8429 62.9326C20.7419 60.8422 23.0046 58.3516 23.0046 54.4395C23.0046 51.0064 21.2824 49.0446 17.9747 49.0446C14.667 49.0446 12.9448 51.0064 12.9448 54.4395V56.5268H16.1384V54.2228Z" fill="#1D1917"/>
<path d="M149.459 89.1242C149.459 89.3752 149.436 89.6261 149.402 89.8656V124.699C149.402 127.265 147.589 129.683 144.372 131.827V147.02C144.372 148.959 143.585 150.692 142.331 151.958C141.065 153.224 139.319 154 137.392 154C133.537 154 130.4 150.875 130.4 147.008V137.462C121.949 139.64 111.284 140.929 99.696 140.929C90.1608 140.929 81.253 140.051 73.691 138.545V147.02C73.691 148.959 72.904 150.692 71.6494 151.958C70.3834 153.224 68.6383 154 66.7107 154C62.8556 154 59.719 150.875 59.719 147.008V134.336C53.6055 131.633 49.9785 128.291 49.9785 124.676V89.1014H50.0013C50.0013 85.0866 53.9249 81.7105 60.1752 79.0872C60.7113 79.3153 61.2587 79.5434 61.829 79.7602C62.4335 79.9883 63.0494 80.2164 63.6882 80.4445C56.6965 82.9309 52.5904 86.1017 52.5904 89.1014C52.5904 92.3977 57.5519 95.8992 65.8781 98.4769C74.9 101.271 86.9331 102.811 99.7417 102.811C112.55 102.811 124.583 101.271 133.605 98.4769C141.92 95.8992 146.893 92.3977 146.893 89.1014C146.893 86.0903 142.775 82.9195 135.761 80.4331C136.4 80.205 137.016 79.9769 137.62 79.7487C138.19 79.532 138.738 79.3153 139.274 79.0758C145.547 81.6991 149.482 85.0866 149.482 89.1014L149.459 89.1242Z" fill="#1D1917"/>
<path fill-rule="evenodd" clip-rule="evenodd" d="M139.241 79.11C145.616 76.384 149.403 72.9623 149.403 69.2669H149.346C149.346 44.6305 129.774 24.5451 105.32 23.7467V17.0059L129.34 14.2914C132.386 13.9492 134.496 11.3715 134.496 8.53148C134.496 7.83573 134.37 7.12857 134.097 6.42142C133.047 3.72967 130.173 2.22411 127.367 2.88564L105.331 8.06384V6.99171C105.331 3.12517 102.195 0 98.3397 0C96.4122 0 94.6672 0.775589 93.4011 2.04162C92.1465 3.30766 91.3595 5.04133 91.3595 6.9803V10.7784C91.291 10.7556 91.2112 10.7556 91.1427 10.7556C90.9478 10.7556 90.7631 10.7762 90.5692 10.7978L90.5383 10.8012L64.3507 14.5423C61.4879 14.9529 59.3664 17.4051 59.3664 20.2908C59.3664 23.5756 62.0582 26.0963 65.1606 26.0963C65.651 26.0963 66.1643 26.0392 66.6661 25.9024L91.3595 19.3327V23.9064C80.4328 24.8759 70.6125 29.7233 63.2786 37.0571C55.0437 45.3035 49.9453 56.6978 49.9453 69.2669C49.9453 72.9737 53.7434 76.384 60.142 79.1214C60.6781 79.3609 61.2256 79.5776 61.7959 79.7944C62.3346 80.0078 62.8824 80.2032 63.4474 80.4046C63.5163 80.4292 63.5855 80.4539 63.655 80.4787C72.7225 83.581 85.4856 85.52 99.6743 85.52C113.863 85.52 126.672 83.581 135.728 80.4673C136.249 80.2904 136.756 80.0982 137.253 79.9095C137.365 79.8671 137.476 79.8248 137.587 79.7829C138.157 79.5662 138.705 79.3381 139.241 79.11ZM58.8998 66.5061H58.9341C59.8579 66.5061 60.6221 65.7761 60.6449 64.8408C60.6791 63.2326 60.9301 61.6472 61.3863 60.1075C61.7969 58.7502 62.3558 57.4385 63.0629 56.2067C63.542 55.3855 63.2568 54.3362 62.4356 53.8686C61.6144 53.3895 60.5651 53.6746 60.0975 54.4959C59.2534 55.9558 58.5919 57.507 58.1128 59.1266C57.5768 60.9401 57.2802 62.8334 57.2346 64.7496C57.2118 65.6963 57.9532 66.4833 58.8998 66.5061Z" fill="#1D1917"/>
</svg>
