<svg width="152" height="154" viewBox="0 0 152 154" fill="none" xmlns="http://www.w3.org/2000/svg">
<path fill-rule="evenodd" clip-rule="evenodd" d="M24.1755 3.43266C28.889 1.41682 33.8804 5.62923 32.7023 10.6216C37.623 12.0943 38.7685 18.5461 34.6426 21.6084C37.4711 25.8979 34.1984 31.5783 29.0673 31.2744C28.4829 36.3821 22.3116 38.6262 18.5831 35.0964C14.8546 38.6262 8.68329 36.3821 8.09889 31.2744C2.96781 31.5783 -0.316542 25.8979 2.52367 21.6084C-1.60223 18.5461 -0.468492 12.0826 4.46389 10.6216C3.2717 5.61905 8.29758 1.39965 13.0196 3.44507C15.3201 -1.14422 21.8673 -1.14835 24.1755 3.43266ZM18.4209 6.93986C17.8949 8.42425 17.2988 9.70994 14.6222 9.70994L14.6106 9.69825V12.1528H17.2871V28.9369H20.7468V6.93986H18.4209Z" fill="#1D1917"/>
<path d="M42.1385 91.2928C41.6125 91.1058 41.0982 90.9187 40.5956 90.72C40.5956 90.6967 40.5723 90.685 40.5723 90.6616C41.0632 90.872 41.5891 91.0824 42.1385 91.2928Z" fill="#1D1917"/>
<path d="M85.3237 97.8611C70.9006 97.6156 57.471 95.8975 47.1972 92.9404C46.1218 92.6365 45.1167 92.3209 44.1699 91.9937C55.145 95.5351 70.2695 97.5338 85.3237 97.8611Z" fill="#1D1917"/>
<path d="M105.776 97.2075C105.776 97.2075 105.741 97.2426 105.718 97.266C100.435 97.6867 95.0233 97.9088 89.6818 97.9088C89.4598 97.9088 89.2377 97.9088 89.0156 97.8971C94.7662 97.8971 100.4 97.6634 105.776 97.2075Z" fill="#1D1917"/>
<path d="M40.5723 90.6616C40.5723 90.6616 40.5839 90.6967 40.5956 90.72C41.0982 90.9187 41.6125 91.1058 42.1385 91.2928C41.5891 91.0824 41.0632 90.872 40.5723 90.6616ZM89.0194 97.8966C89.2415 97.9082 89.4636 97.9082 89.6857 97.9082C95.0271 97.9082 100.439 97.6862 105.722 97.2654C105.745 97.242 105.757 97.2303 105.78 97.2069C100.404 97.6628 94.77 97.8966 89.0194 97.8966Z" fill="#1D1917"/>
<path d="M85.3237 97.8611C70.9006 97.6156 57.471 95.8975 47.1972 92.9404C46.1218 92.6365 45.1167 92.3209 44.1699 91.9937C55.145 95.5351 70.2695 97.5338 85.3237 97.8611Z" fill="#D8E200"/>
<path d="M151.067 82.8195C151.067 73.8547 134.75 67.8353 114.472 65.1237C114.46 65.0886 114.436 65.0536 114.413 65.0185C113.279 63.1718 111.83 61.6056 110.077 60.2731C105.25 56.5563 98.1316 54.7096 89.0265 54.1953C90.5577 51.8226 93.4446 49.0409 98.8445 47.498C99.5458 47.311 99.9549 46.563 99.7562 45.8617C99.5458 45.1721 98.8211 44.7513 98.1199 44.9617C91.5862 46.8318 88.22 50.3382 86.4785 53.2953C77.9579 37.4463 58.6375 33.5775 47.4753 46.563C41.7365 53.2252 39.0599 60.2147 38.1482 67.4496C37.9846 68.8054 37.8794 70.1613 37.8326 71.5288C31.1003 74.5092 26.9393 78.2845 26.9393 82.8195H26.8926V125.002C26.8926 134.843 41.643 154 88.9798 154H89.0265C136.363 154 151.125 134.843 151.125 125.002V82.8195H151.067ZM130.811 92.9414C123.728 94.9751 115.149 96.4244 105.776 97.2075C105.752 97.2309 105.741 97.2426 105.717 97.266C100.434 97.6867 95.0225 97.9088 89.6811 97.9088C89.459 97.9088 89.2369 97.9088 89.0148 97.8971C88.0213 97.9088 87.0279 97.8971 86.0344 97.8738C85.8006 97.8738 85.5668 97.8621 85.3214 97.8621C70.8983 97.6166 57.4687 95.8985 47.1948 92.9414C46.1195 92.6375 45.1143 92.3219 44.1676 91.9946C43.7468 91.8544 43.3377 91.7141 42.9403 91.5739C42.6598 91.4921 42.4027 91.3985 42.1339 91.2933C41.6079 91.1063 41.0936 90.9193 40.591 90.7206C40.591 90.6972 40.5677 90.6856 40.5677 90.6622C33.7769 87.8571 31.1821 84.9116 31.1821 82.8195C31.1821 81.0312 33.0639 78.6235 37.8326 76.2157C37.9261 78.3897 38.1365 80.5987 38.417 82.8195C38.4989 83.4506 38.5807 84.0818 38.6742 84.7129C38.7092 84.9233 38.7443 85.122 38.7677 85.309C41.0936 86.4545 44.0975 87.6116 47.8727 88.6869C59.0115 91.8894 73.8671 93.6543 89.6811 93.6543C96.7991 93.6543 103.718 93.292 110.194 92.6024C112.823 89.5051 114.927 86.1973 116.178 82.8195C117.265 79.8975 117.721 76.9287 117.347 73.9599C117.171 72.4171 116.879 70.9911 116.47 69.6587C121.695 70.4535 126.522 71.4703 130.811 72.6976C142.616 76.0871 146.824 80.1429 146.824 82.8195C146.824 85.4961 142.616 89.5518 130.811 92.9414Z" fill="#1D1917"/>
<path d="M42.1385 91.2928C41.6125 91.1058 41.0982 90.9187 40.5956 90.72C40.5956 90.6967 40.5723 90.685 40.5723 90.6616C41.0632 90.872 41.5891 91.0824 42.1385 91.2928Z" fill="#1D1917"/>
<path d="M85.3237 97.8611C70.9006 97.6156 57.471 95.8975 47.1972 92.9404C46.1218 92.6365 45.1167 92.3209 44.1699 91.9937C55.145 95.5351 70.2695 97.5338 85.3237 97.8611Z" fill="#1D1917"/>
<path d="M105.776 97.2075C105.776 97.2075 105.741 97.2426 105.718 97.266C100.435 97.6867 95.0233 97.9088 89.6818 97.9088C89.4598 97.9088 89.2377 97.9088 89.0156 97.8971C94.7662 97.8971 100.4 97.6634 105.776 97.2075Z" fill="#1D1917"/>
<path d="M79.1632 22.882C94.1707 25.5352 98.4603 41.7933 92.2305 45.101C85.3228 48.7828 78.1814 40.6946 79.1632 22.882Z" fill="#1D1917"/>
<path d="M40.5723 90.6616C40.5723 90.6616 40.5839 90.6967 40.5956 90.72C41.0982 90.9187 41.6125 91.1058 42.1385 91.2928C41.5891 91.0824 41.0632 90.872 40.5723 90.6616ZM89.0194 97.8966C89.2415 97.9082 89.4636 97.9082 89.6857 97.9082C95.0271 97.9082 100.439 97.6862 105.722 97.2654C105.745 97.242 105.757 97.2303 105.78 97.2069C100.404 97.6628 94.77 97.8966 89.0194 97.8966Z" fill="#D8E200"/>
<path d="M137.968 27.113C133.211 22.9286 127.647 22.765 123.965 25.5117C121.604 27.2649 120.903 30.7129 118.753 33.4479C118.671 33.5297 118.612 33.6233 118.542 33.7051C116.882 32.8051 114.966 31.7298 113.598 30.8298C110.302 28.6675 107.649 26.5286 105.51 24.4247C97.6906 16.7339 96.9425 9.58082 98.5321 4.0056C99.6658 4.01729 100.507 3.85366 100.952 3.72509C101.15 3.69003 101.255 3.64327 101.279 3.63158C101.419 3.58483 101.536 3.49133 101.629 3.38613C101.887 3.129 101.98 2.74329 101.852 2.40434C101.676 1.92513 101.162 1.66798 100.694 1.80824C100.671 1.80824 100.648 1.80824 100.624 1.81993C100.589 1.84331 100.052 2.00694 99.175 2.05369C98.5789 2.10044 97.8542 2.07707 97.001 1.92512C96.5334 1.83162 96.0425 1.70305 95.5166 1.52773C95.014 1.34072 94.4763 1.59786 94.2776 2.10044C94.1023 2.60303 94.3595 3.14068 94.862 3.33938C95.3997 3.52639 95.9023 3.66665 96.4049 3.77184C95.5166 7.03282 95.3529 10.7379 96.6386 14.7353C97.0477 16.056 97.6321 17.3885 98.3918 18.756C98.3918 18.756 98.3918 18.7794 98.4152 18.791C99.8529 21.3741 101.968 24.039 104.902 26.7506C106.971 28.6792 109.472 30.6194 112.441 32.5713C113.762 33.4479 115.492 34.418 117.104 35.2946C114.147 38.2868 111.763 38.8011 110.325 41.2205C106.69 47.31 108.666 51.3775 113.119 55.293C120.903 62.1422 132.767 61.3942 139.627 53.5982C146.477 45.8139 145.729 33.9505 137.933 27.0896L137.968 27.113ZM136.308 30.4558L136.226 30.5376C135.876 30.8649 135.326 30.8649 134.952 30.5376C132.135 28.0597 128.898 27.5221 126.689 29.1701C126.268 29.4857 125.672 29.3922 125.345 28.9714C125.029 28.5506 125.111 27.9545 125.543 27.6273C128.5 25.4182 132.696 26.0026 136.215 29.1C136.624 29.4506 136.67 30.0467 136.308 30.4558Z" fill="#1D1917"/>
<path d="M134.121 13.8824C131.199 6.99811 118.868 -2.60951 102.399 4.8475C102.037 5.01113 101.663 5.18646 101.277 5.37347C102.014 6.09813 102.762 6.77604 103.498 7.3955C118.12 19.6329 134.109 13.8824 134.109 13.8824H134.121Z" fill="#1D1917"/>
</svg>
