<svg width="131" height="32" viewBox="0 0 131 32" fill="none" xmlns="http://www.w3.org/2000/svg">
<g clip-path="url(#clip0_6375_17390)">
<path d="M69.054 1.75219C70.7376 2.93451 71.6949 4.61655 71.9157 6.80604C72.0286 7.97291 71.9259 8.73021 71.6077 9.0831C71.4024 9.30205 70.7736 9.46948 69.7213 9.55964C68.6588 9.67298 67.9581 9.60601 67.6219 9.3716C67.3652 9.20932 67.1574 8.78688 67.0008 8.09912C66.8263 7.29803 66.6928 6.83695 66.5953 6.71073C66.218 6.15434 65.6508 5.871 64.9014 5.871C64.1212 5.85297 63.6618 6.16722 63.5155 6.80346C63.4693 7.0765 63.5001 7.37015 63.613 7.68956C63.7567 8.07336 63.826 8.32838 63.826 8.45717C63.8465 8.63233 63.8029 8.92855 63.708 9.34069C63.6233 9.70904 63.6027 9.99754 63.6361 10.2036C63.6823 10.5848 63.9261 11.0227 64.3753 11.5199C65.2658 12.5245 65.697 13.0036 65.6636 12.9546C66.5388 14.1035 67.2549 14.9999 67.8118 15.6387C69.67 17.7921 70.9045 19.7755 71.5127 21.5786C71.795 22.475 71.9259 23.6548 71.89 25.123C71.8412 26.7536 71.5795 27.9745 71.1046 28.7885C70.5939 29.6179 69.6648 30.3108 68.3123 30.8724C66.8956 31.4597 65.4737 31.6863 64.0416 31.5421C62.2117 31.3644 60.6358 30.5839 59.3166 29.1955C57.9179 27.6963 57.2455 25.9138 57.2891 23.8557C57.3045 22.7223 57.4739 22.0371 57.7947 21.7976C58.1258 21.5555 58.8829 21.4936 60.0609 21.6044C61.2236 21.7152 61.9371 21.9187 62.2065 22.202C62.4606 22.4905 62.63 23.1757 62.7096 24.2627C62.7737 25.1849 63.0817 25.7696 63.6412 26.0091C64.6909 26.4445 65.5225 26.241 66.1461 25.4115C66.7518 24.6104 66.8699 23.6161 66.5055 22.4158C66.3977 22.099 66.1153 21.7306 65.6713 21.3133C65.0194 20.726 64.6088 20.3345 64.4548 20.1413C64.2829 19.9507 64.0621 19.6364 63.8106 19.2088C63.5565 18.7761 63.3615 18.4721 63.2178 18.2996C62.9277 17.9492 62.4658 17.5268 61.8318 17.0297C61.162 16.5196 60.7077 16.1178 60.4716 15.8293C59.4347 14.647 58.6725 13.2303 58.1797 11.5688C57.7023 9.94344 57.5689 8.34641 57.7742 6.78028C57.9795 5.1343 58.5236 3.76909 59.4219 2.68465C60.3869 1.5049 61.6932 0.793964 63.3307 0.554408C65.5122 0.219545 67.4217 0.618805 69.0591 1.75219H69.054ZM60.605 11.7852C60.9207 11.4735 61.1235 11.0949 61.2184 10.6544C61.2698 10.4123 61.067 10.1933 60.8206 10.2191C60.4228 10.2603 60.0738 10.3736 59.7709 10.5617C59.3911 10.8192 59.1781 11.1721 59.1293 11.6178C59.0985 11.9011 59.3115 12.1561 59.5938 12.1844C59.9531 12.2205 60.2919 12.0866 60.605 11.7852ZM63.613 17.1765C63.5514 17.4469 63.6053 17.7715 63.7798 18.1579C63.9543 18.5417 64.1956 18.8276 64.4959 19.0182C64.8141 19.2191 65.1349 19.2732 65.4686 19.1728C65.5353 19.1522 65.5943 19.111 65.6354 19.0569C65.91 18.6834 65.851 18.2171 65.4506 17.6504C65.0348 17.0941 64.6293 16.7978 64.2315 16.7643C63.8825 16.7386 63.6746 16.87 63.6104 17.1739L63.613 17.1765ZM68.0787 26.0967C68.5715 25.6897 68.7794 25.0071 68.5356 24.4147C68.4611 24.2369 68.3713 24.1133 68.2661 24.0489C68.0582 23.9381 67.8144 24.0566 67.5269 24.4095C67.0855 24.9711 66.8006 25.5352 66.6723 26.1044C66.5825 26.496 67.0136 26.8051 67.3601 26.6042C67.5885 26.4702 67.8272 26.3028 68.0762 26.0967H68.0787Z" fill="#353C1B"/>
<path d="M84.767 9.46144C84.767 8.88702 84.7387 2.79252 84.7387 2.56584C84.7105 1.72096 84.8234 1.05639 85.0955 0.574699C85.6396 0.402116 86.3377 0.35575 87.1974 0.433026C88.088 0.530909 88.7245 0.718947 89.1044 1.00744C89.2943 21.3001 89.3995 31.3434 89.4149 31.1374C88.7451 31.4877 87.8981 31.6397 86.8638 31.5933C85.8423 31.5289 85.1134 31.3022 84.6669 30.921C84.3666 30.666 80.5733 18.4358 80.0112 17.8897C79.675 18.003 79.4851 18.2812 79.4414 18.7294C79.4106 18.8608 79.2028 22.4103 79.0616 25.4601C78.9307 27.9845 78.7562 29.8417 78.5329 31.0446C78.1402 31.2661 77.5243 31.3949 76.7004 31.4233C75.9381 31.4542 75.3171 31.4001 74.8371 31.2584C74.5214 30.7793 74.3546 30.1559 74.3366 29.3883C74.3366 29.1488 74.3366 25.0763 74.1929 23.3041C74.0518 21.5654 74.0312 18.258 74.1467 17.1246C74.2391 16.1999 74.1698 15.5276 74.1057 14.9815C74.0903 14.8064 73.9619 14.572 73.7848 14.1366C73.6283 13.7554 73.6668 13.3252 73.6668 13.1011C73.6668 12.9414 73.7515 12.6581 73.9311 12.264C74.1339 11.8184 74.2673 11.4938 74.3084 11.3032C74.3931 10.8241 74.4188 9.3378 74.4059 6.84693C74.3854 3.51634 74.3366 1.50716 74.2673 0.819406C74.2571 0.706068 74.3084 0.50515 74.5625 0.494847C75.2375 0.469088 76.2307 0.47424 77.5807 0.502574C79.2233 0.536061 79.7854 0.445905 80.3269 0.97911C80.7221 1.36807 80.9916 2.30311 81.3715 4.18864C82.2158 8.29457 83.1218 12.2691 83.9765 13.6472C84.169 13.9589 84.6386 13.9074 84.7464 13.5571C84.9364 12.9286 84.7695 10.7082 84.7695 9.45629L84.767 9.46144ZM76.5823 6.17721C76.6978 5.95053 76.7286 5.67234 76.667 5.34005C76.5618 4.75533 76.3462 4.36122 76.0177 4.15515C75.738 3.97999 75.3966 4.10106 75.258 4.41532C75.1194 4.72957 75.0809 5.10822 75.14 5.55642C75.2272 6.21069 75.4967 6.54556 75.9381 6.55844C76.2307 6.55844 76.4489 6.43222 76.5823 6.17721ZM75.7405 2.42159C75.7457 2.31341 75.7405 2.22325 75.7174 2.1537C75.6558 1.95021 75.3684 1.92188 75.2632 2.10734C75.199 2.2181 75.1682 2.36235 75.1682 2.54266C75.1733 2.63024 75.1887 2.70752 75.2118 2.77191C75.2914 2.99601 75.6148 2.99086 75.6866 2.76676C75.7174 2.67403 75.7354 2.56069 75.7431 2.42417L75.7405 2.42159ZM78.2223 17.7686C78.3661 17.5754 78.4456 17.3848 78.461 17.1942C78.4918 16.849 78.1094 16.5914 77.7989 16.7434C77.6038 16.8387 77.4344 16.9881 77.2907 17.1916C76.8621 17.5754 76.4617 18.1782 77.2779 18.5646C77.5653 18.495 77.8014 18.3405 78.2223 17.7686ZM77.3549 11.6793C77.1649 11.5685 76.9494 11.5221 76.7107 11.535C76.1204 11.5685 75.8766 11.9214 75.9689 12.5885C76.241 12.8745 76.5977 12.962 77.0443 12.8513C77.4755 12.7379 77.6834 12.5087 77.6654 12.1558C77.6474 11.9678 77.5448 11.8029 77.3574 11.6793H77.3549Z" fill="#353C1B"/>
<path d="M105.709 31.9952C104.834 32.0261 104.189 31.9205 103.776 31.681C103.281 31.4131 102.932 30.7279 102.721 29.6254C102.501 28.4431 102.257 27.7296 102.149 27.3278C102.028 26.877 101.823 26.9234 101.584 26.877C100.843 26.7353 100.27 26.3129 99.408 26.2047C98.2428 26.0604 97.4266 26.1712 96.9492 26.5396C96.5206 26.8924 96.264 27.6343 96.1844 28.7651C96.1074 29.8985 95.9303 30.6764 95.6532 31.0963C95.6147 31.1529 95.5274 31.2714 95.3477 31.2843C93.274 31.4105 92.2115 31.3951 91.5698 31.2637C91.4543 31.2405 91.3953 31.104 91.403 30.9855C91.539 29.1566 91.8496 26.6967 92.3449 23.6185C92.966 19.7985 93.3484 17.2304 93.487 15.9012C94.1851 9.81187 95.0475 4.88939 96.0843 1.13378C96.1049 1.05908 96.1536 0.997256 96.2204 0.961194C96.5822 0.7577 97.3522 0.605724 98.5277 0.505265C101.04 0.314651 102.583 0.4589 103.16 0.935435C103.455 1.19302 103.686 1.92972 103.848 3.1378C103.899 3.52161 103.94 4.01875 103.992 4.62408C104.038 5.24486 104.076 5.62351 104.107 5.76003C104.107 5.76776 104.11 5.77549 104.11 5.78322C104.266 7.15615 104.505 8.8588 104.823 10.8963C105.175 13.0523 105.421 14.7189 105.562 15.8986C105.95 18.9614 106.166 20.6305 106.204 20.9139C106.209 20.9422 106.219 21.0066 106.227 21.0349C106.358 21.6171 106.579 22.0215 106.979 22.2353C107.38 22.4594 107.598 22.6912 107.698 22.9076C107.844 23.2244 108.126 23.9431 107.721 24.8163C107.297 25.7282 107.061 26.2588 107.048 26.6246C107.013 27.405 107.11 28.3169 107.331 29.355C107.539 30.2823 107.649 30.9391 107.664 31.3281C107.67 31.4311 107.613 31.5264 107.526 31.5805C107.123 31.8252 106.517 31.9592 105.711 31.9901L105.709 31.9952ZM94.5393 20.0973C94.5598 19.9221 94.5521 19.7702 94.5136 19.6465C94.4828 19.5486 94.3904 19.4739 94.2878 19.4636C94.0157 19.4353 93.8489 19.5899 93.795 19.9299C93.7796 20.0896 93.8053 20.2338 93.8694 20.3626C93.949 20.4888 94.0696 20.5532 94.2287 20.5532C94.4007 20.5378 94.5059 20.3858 94.5393 20.0973ZM100.745 17.9156C100.227 13.7169 99.7596 10.3296 99.5132 9.72687C99.4952 9.6805 99.4644 9.63929 99.4259 9.60838L99.3412 9.54141C99.2822 9.51822 99.1642 9.50792 99.118 9.60323C98.5713 10.6825 98.1683 13.176 97.9759 15.4736C97.9143 16.1588 97.8578 17.1351 97.8065 18.3947C97.7628 19.6311 97.7782 20.731 97.75 21.2616C97.7449 21.344 97.7603 21.4496 97.8373 21.4805C98.04 21.5656 98.7304 21.5939 99.4003 21.6454C100.332 21.7175 100.458 21.5681 100.704 21.2075C100.714 21.1946 100.722 21.1792 100.73 21.1663C100.922 20.7954 100.945 19.6414 100.745 17.9156ZM101.415 2.75657C101.897 2.9034 102.28 2.84673 102.562 2.58657C102.608 2.54278 102.637 2.48353 102.644 2.41913C102.678 2.09715 102.603 1.82411 102.418 1.60516C102.239 1.39909 102.008 1.2703 101.723 1.22651C101.42 1.19302 101.163 1.24196 100.963 1.36818C100.722 1.515 100.607 1.72107 100.624 1.99154C100.642 2.34443 100.902 2.59945 101.415 2.75657ZM101.764 25.0224C101.713 25.0559 101.669 25.0996 101.636 25.1512C101.456 25.4242 101.81 25.7797 102.082 25.6019C102.134 25.5685 102.177 25.5272 102.211 25.4757C102.393 25.2027 102.036 24.8472 101.764 25.0249V25.0224ZM102.103 14.6571C102.108 14.5772 102.072 14.4948 102.013 14.4407C101.777 14.2089 101.569 14.2424 101.389 14.5412C101.197 14.8091 101.189 15.0486 101.346 15.2598C101.407 15.3423 101.515 15.386 101.615 15.368C101.915 15.3165 102.075 15.0795 102.1 14.6571H102.103ZM103.548 12.4908C103.63 12.5165 103.722 12.5011 103.789 12.4496C104.082 12.2255 104.228 11.9653 104.228 11.6665C104.207 11.396 104.082 11.1565 103.845 10.9478C103.607 10.7443 103.378 10.6774 103.158 10.7546C102.898 10.819 102.757 11.0586 102.721 11.4733C102.691 11.9653 102.968 12.3053 103.545 12.4908H103.548ZM104.582 25.6509C104.718 25.4165 104.772 25.1563 104.744 24.8807C104.728 24.739 104.605 24.6257 104.461 24.6308C104.13 24.6437 103.869 24.7983 103.676 25.0945C103.476 25.401 103.437 25.6869 103.558 25.9497C103.604 26.0501 103.712 26.112 103.822 26.1094C104.164 26.1042 104.418 25.9471 104.579 25.6483L104.582 25.6509Z" fill="#353C1B"/>
<path d="M115.057 23.6907C114.849 28.317 114.708 30.8027 114.628 31.1375C114.182 31.4389 113.45 31.5935 112.434 31.5935C111.418 31.5935 110.696 31.4956 110.252 31.1916C110.011 28.3324 109.901 23.9509 109.901 18.1577C109.888 11.5455 109.829 7.09954 109.736 4.81732C109.639 2.88285 109.744 1.69022 110.042 1.24717C110.394 0.703663 111.125 0.433197 112.241 0.433197C113.209 0.433197 114.492 0.636691 114.628 0.935491C114.764 1.23429 115.36 16.7616 115.057 23.6907ZM111.72 6.06147C111.448 5.75751 111.187 5.75751 110.93 6.06147C110.658 6.38087 110.673 6.65907 110.974 6.9012C111.518 6.93211 111.764 6.65134 111.718 6.06147H111.72ZM110.789 20.2648C110.804 20.695 110.971 20.9268 111.292 20.9603C111.702 20.8779 111.91 20.5765 111.91 20.0484C111.91 19.5204 111.638 19.2963 111.099 19.3761C110.861 19.5539 110.753 19.8501 110.789 20.2648Z" fill="#353C1B"/>
<path d="M130.828 31.0938C130.497 31.5729 125.836 31.2741 123.018 31.0603C120.379 30.8697 119.196 30.8851 118.942 30.5116C118.721 30.2077 118.406 29.3551 118.457 27.6653C118.467 27.266 118.493 20.6538 118.634 18.2402C118.804 15.0641 118.678 10.0515 118.519 6.68227C118.519 6.51999 118.447 3.6582 118.429 3.15591C118.398 1.54856 118.698 0.670194 119.337 0.528521C119.766 0.430638 123.221 0.729439 123.462 0.938084C123.734 1.18279 123.908 1.91691 123.988 3.15848C124.003 3.49592 124.109 14.2785 124.157 16.8827C124.186 19.2808 124.193 20.9861 124.18 21.9984C124.18 22.0937 124.165 23.0854 124.088 23.9741C124.011 24.8859 123.906 25.4294 124.504 25.9601C124.758 26.1867 125.99 26.112 127.227 26.1507C128.623 26.1945 130.109 26.3078 130.497 26.4108C130.64 26.4495 130.746 26.5705 130.766 26.7199C130.815 27.0703 131.113 30.6739 130.823 31.0938H130.828ZM120.654 4.45414C120.675 4.33308 120.641 4.20428 120.551 4.12186C120.431 4.00852 120.29 3.95443 120.125 3.95443C119.933 3.95443 119.761 4.02913 119.602 4.17337C119.443 4.31762 119.355 4.48763 119.34 4.68082C119.34 4.84567 119.407 4.9925 119.538 5.11872C119.607 5.18569 119.697 5.21918 119.792 5.22433C120.282 5.25266 120.569 4.99508 120.654 4.45414ZM120.097 19.7548C119.943 19.7728 119.802 19.8759 119.676 20.0691C119.407 20.4657 119.379 20.8418 119.594 21.1999C119.653 21.2977 119.751 21.357 119.853 21.3621C120.413 21.3905 120.664 21.0067 120.61 20.2159C120.605 20.1257 120.567 20.0407 120.51 19.9763C120.382 19.8295 120.243 19.7548 120.095 19.7548H120.097ZM119.507 17.6374C119.432 17.9002 119.394 18.1269 119.394 18.32C119.394 18.8945 120.128 19.1443 120.474 18.6884C120.595 18.5287 120.693 18.3072 120.767 18.029C120.857 17.7121 120.98 17.0501 120.944 16.826C120.859 16.298 120.146 16.1512 119.869 16.6045C119.769 16.7668 119.584 17.3721 119.509 17.6374H119.507ZM120.41 7.61988C120.41 7.61988 120.41 7.61473 120.413 7.61473C120.626 7.25926 120.146 6.87031 119.843 7.15108C119.815 7.17684 119.789 7.20517 119.766 7.23866C119.746 7.26442 119.73 7.29275 119.715 7.32108C119.558 7.63019 119.917 7.9702 120.22 7.80792C120.295 7.76928 120.356 7.70746 120.408 7.62246L120.41 7.61988Z" fill="#353C1B"/>
<path d="M0.0298465 23.7346C0.260833 11.5894 0.363493 5.19353 0.332695 4.55214C0.260833 2.83146 0.268532 1.78823 0.355794 1.42246C0.545716 0.621366 1.11292 0.162862 2.05483 0.0469476C2.92744 -0.0560871 4.84463 0.0160371 7.80895 0.265896C9.73897 0.4256 11.1993 0.819708 12.19 1.44564C12.8727 1.88354 13.504 2.68464 14.0866 3.8515C14.623 4.94625 14.9516 6.00235 15.0671 7.0224C15.2544 8.71474 15.0722 10.3169 14.5204 11.8341C14.4485 12.0376 14.1867 12.527 13.7376 13.2998C13.404 13.8691 13.2423 14.343 13.2577 14.7217C13.2577 15.0282 13.4322 15.4223 13.7812 15.904C13.8377 15.9916 13.9917 16.1951 14.2381 16.5145C14.4126 16.7489 14.5435 16.9395 14.6307 17.0837C16.2861 19.7369 16.7533 22.56 16.0244 25.548C15.5444 27.5186 14.7616 28.9456 13.6709 29.8343C12.48 30.7976 10.5038 31.3077 7.74222 31.3643C6.84138 31.3798 5.61458 31.3515 4.05927 31.2768C2.15749 31.1763 0.915294 31.1171 0.332695 31.1016C0.0452455 30.2413 -0.057415 27.7839 0.0272799 23.732L0.0298465 23.7346ZM10.0059 21.9985C9.77747 20.9037 9.77747 19.809 9.10761 18.8843C8.35305 18.042 6.92864 17.7071 5.9508 18.3588C5.87637 18.4103 5.80707 18.467 5.74291 18.5288C5.61201 18.6524 5.50422 18.8018 5.41953 18.9693C5.58635 20.064 5.41953 21.0738 5.46829 22.1608C5.46829 22.2793 5.46829 22.3977 5.46829 22.5162C5.47599 23.4642 5.49139 24.4043 5.54785 25.3214C5.55812 25.445 5.57095 25.5661 5.58378 25.682C5.60175 25.8262 5.62228 25.9576 5.64538 26.0787C5.66848 26.4573 6.08682 26.8798 6.50773 26.7097C7.42911 26.5423 8.43518 26.5423 9.10761 25.8674C9.798 24.9427 9.99819 23.7346 10.0162 22.5575C10.0162 22.4518 10.0162 22.3437 10.0162 22.238C10.0162 22.1582 10.011 22.0783 10.0059 21.9985ZM7.30848 12.7769C7.86028 12.7176 8.31199 12.5528 8.65847 12.2746C9.41302 11.6487 9.8057 10.4457 9.8365 8.6658C9.86473 6.84208 9.43612 5.75507 8.55067 5.40733C8.08613 5.23217 7.6062 5.18838 7.11086 5.27596C6.50003 5.37899 5.66078 5.44081 5.53502 5.70613C5.37333 6.04614 5.58378 7.63288 5.49396 9.44629C5.42466 10.8424 5.44263 11.847 5.76601 12.3647C5.99699 12.7357 6.71048 12.8361 7.30591 12.7769H7.30848ZM11.3841 24.698C11.166 24.6697 10.9555 24.7418 10.7527 24.9169C10.2292 25.3548 10.1342 25.888 10.4679 26.514C10.8759 26.6325 11.2455 26.5217 11.5792 26.1868C11.9 25.8365 11.9924 25.4811 11.864 25.1153C11.7768 24.868 11.6151 24.7289 11.3841 24.698ZM12.0386 16.1513C12.2516 16.3161 12.4312 16.3161 12.5801 16.1513C12.7136 16.0405 12.7675 15.9091 12.7392 15.7623C12.729 15.6361 12.6571 15.5253 12.5211 15.43C12.2105 15.1956 11.9487 15.2523 11.7332 15.6078C11.7563 15.8164 11.8589 15.9967 12.0411 16.1461L12.0386 16.1513Z" fill="#353C1B"/>
<path d="M30.0413 0.37379C30.6804 0.621073 31.3323 1.27792 32.0047 2.34433C32.5847 3.27679 33.0287 4.29168 33.3341 5.38385C33.6524 6.44768 33.7551 8.1323 33.6396 10.4377C33.4779 13.5597 33.4137 15.4246 33.4445 16.0376C33.6036 19.5975 33.5241 22.382 33.2033 24.3938C32.7233 27.3122 31.707 29.208 30.1517 30.0813C29.2791 30.5784 28.0086 30.9493 26.3378 31.1992C24.4052 31.4903 22.8859 31.4027 21.7823 30.9365C21.2305 30.7175 20.6556 30.1431 20.0627 29.2081C19.4955 28.3323 19.1105 27.4951 18.9052 26.6914C18.7178 25.9187 18.6306 24.9347 18.6434 23.7395C18.6588 22.1373 18.6383 21.058 18.5767 20.5016C18.0813 14.6389 18.0172 10.5562 18.3816 8.25337C18.4381 7.84381 18.9334 6.53269 19.8625 4.31487C20.4297 2.95738 21.0559 1.99659 21.7386 1.42732C22.524 0.757594 23.6635 0.332576 25.1624 0.159993C27.3696 -0.102746 28.9993 -0.0280456 30.0439 0.378941L30.0413 0.37379ZM20.7249 8.11942C20.6299 8.08078 20.5247 8.06533 20.4092 8.07306C20.1756 8.10397 19.9575 8.20443 19.7547 8.37959C19.5366 8.56762 19.398 8.78915 19.3415 9.03643C19.3364 9.06477 19.3312 9.0931 19.3261 9.11886C19.2799 9.49494 19.6418 9.78086 20.0037 9.67267C20.4579 9.53615 20.7736 9.18326 20.9533 8.61141C21.0149 8.41307 20.9199 8.1967 20.7274 8.122L20.7249 8.11942ZM20.5837 23.9765C20.7557 23.6854 20.7839 23.4227 20.671 23.1857C20.5914 23.0234 20.4169 22.941 20.2424 22.9822C20.0191 23.0388 19.842 23.1573 19.7111 23.3402C19.6675 23.402 19.6315 23.4664 19.6059 23.5308C19.3723 24.1259 20.1962 24.5457 20.5529 24.0177C20.5632 24.0022 20.5734 23.9893 20.5811 23.9739L20.5837 23.9765ZM22.3264 28.3941C21.9876 28.2524 21.6719 28.2009 21.3819 28.2447C21.0919 28.2859 20.8737 28.5357 20.8712 28.8294C20.8686 29.1076 20.9404 29.3626 21.0842 29.597C21.2715 29.8881 21.5487 30.0916 21.9106 30.2101C22.2442 30.3105 22.5343 30.2899 22.7832 30.1431C23.0578 29.9988 23.181 29.7284 23.1528 29.3343C23.1246 28.9402 22.8474 28.6285 22.3238 28.3941H22.3264ZM23.3735 17.7429C23.2708 19.5666 23.3299 21.2563 23.548 22.8173C23.8226 24.8574 24.3308 25.9676 25.0725 26.1402C26.0324 26.3901 26.7947 26.0526 27.3619 25.1356C27.7956 24.4221 28.0574 23.4793 28.1447 22.315C28.2884 20.3316 28.3628 17.3848 28.3628 13.4772C28.3628 13.2737 28.3936 12.3825 28.4501 10.8086C28.5091 9.65722 28.5014 8.76081 28.4295 8.11685C28.2242 6.22101 27.4183 5.41219 26.0093 5.6878C25.2368 5.85008 24.7286 6.60739 24.4848 7.96487C24.3975 8.40277 24.3231 9.00552 24.2667 9.78086C24.1948 10.7571 24.1435 11.3496 24.1152 11.5531C23.6199 15.4761 23.3735 17.5394 23.3735 17.7429ZM31.8507 26.5343C32.0252 26.3591 32.1484 26.1273 32.2228 25.8337C32.2793 25.5426 32.2588 25.303 32.1561 25.1124C32.0381 24.9089 31.8353 24.8265 31.5453 24.8703C31.1244 24.9295 30.8472 25.2361 30.7189 25.7899C30.5726 26.3591 30.7394 26.694 31.2193 26.797C31.4529 26.8408 31.6633 26.7533 31.8507 26.5343Z" fill="#353C1B"/>
<path d="M35.9552 23.7349C36.1887 11.5871 36.2888 5.1912 36.2606 4.55238C36.1887 2.8317 36.2734 1.79878 36.2837 1.4227C36.3196 0.116737 37.0408 0.163103 37.9853 0.044613C38.8553 -0.0584217 40.7751 0.0137025 43.7394 0.263562C45.6694 0.423265 47.1324 0.817373 48.1179 1.44331C48.8006 1.88121 49.4319 2.6823 50.0145 3.84917C50.5535 4.94391 50.8795 6.00002 50.995 7.02006C51.1849 8.71241 51.0027 10.3146 50.4483 11.8318C50.3764 12.0353 50.1146 12.5247 49.6629 13.2975C49.3293 13.8667 48.9931 14.266 49.0085 14.6446C49.0085 14.9512 49.3575 15.4174 49.7066 15.8991C49.763 15.9867 49.917 16.1901 50.1634 16.5096C50.3379 16.744 50.4688 16.9346 50.5535 17.0788C52.2089 19.732 52.676 22.5551 51.9471 25.5431C51.4672 27.5137 50.6844 28.9407 49.5936 29.8294C48.4028 30.7927 46.4266 31.3028 43.665 31.3594C42.7641 31.3749 41.5348 31.3697 39.9795 31.4341C38.1111 31.514 36.3171 31.6763 36.2555 31.0967C36.1631 30.2106 35.8654 27.779 35.95 23.7271L35.9552 23.7349ZM43.2364 12.7771C43.7882 12.7179 44.2373 12.553 44.5864 12.2748C45.3435 11.6489 45.7362 10.446 45.7644 8.66604C45.7926 6.84233 45.3666 5.75531 44.4786 5.40757C44.0115 5.23241 43.5315 5.18862 43.0388 5.2762C42.4305 5.37923 42.0199 5.50545 41.6785 5.93305C41.3064 6.39928 41.563 7.71812 41.5784 9.54184C41.5912 10.9405 41.4732 11.8962 41.8967 12.3907C42.1738 12.7282 42.6384 12.8389 43.2364 12.7797V12.7771ZM46.2392 28.1525C46.4548 28.1087 46.6319 27.9722 46.7679 27.7403C46.9912 27.3746 47.2761 26.5735 47.1554 26.2489C46.9861 25.7853 46.4882 25.7337 46.1494 26.0944C46.0595 26.1897 45.749 26.7589 45.6823 26.8955C45.4924 27.3308 45.5154 27.6966 45.7567 28.0005C45.9184 28.2066 46.0108 28.1988 46.2392 28.1525ZM48.1846 16.8676C48.4464 16.8084 48.5619 16.6718 48.5311 16.4529C48.5311 16.2777 48.4644 16.1541 48.336 16.082C48.2334 16.0098 48.1025 15.9944 47.9434 16.0382C47.679 16.1 47.5404 16.2339 47.5225 16.4452C47.5045 16.6667 47.6688 16.8521 47.8895 16.8805C47.9819 16.8934 48.0794 16.8882 48.1821 16.8702L48.1846 16.8676ZM49.1856 9.99777C49.5038 9.92564 49.7143 9.65518 49.9889 9.26107C50.2635 8.85408 50.3148 8.53982 50.2558 8.24875C50.1968 7.91131 50.0145 7.62539 49.491 7.87783C49.2395 7.99889 49.0675 8.13799 48.8211 8.41361C48.5285 8.73301 48.4413 9.15288 48.5003 9.5135C48.5773 9.99004 48.8237 10.075 49.1881 10.0003L49.1856 9.99777ZM46.27 22.0477C46.2546 21.7154 46.2212 21.4037 46.1725 21.1178C45.9954 20.1518 45.7439 19.1421 44.9046 18.5522C43.8985 17.9623 42.2226 17.29 41.7196 18.2148C40.8803 19.9818 41.8864 22.0863 41.8094 24.0749C41.8094 24.3402 41.7991 24.5952 41.794 24.8322C41.7735 25.5457 41.7504 26.1072 41.853 26.2953C41.9865 26.5374 42.2226 26.6997 42.4972 26.7332C43.7035 26.8774 44.8379 26.643 45.3948 26.0274C46.0493 25.3268 46.3393 24.0002 46.2674 22.0451L46.27 22.0477Z" fill="#353C1B"/>
</g>
<defs>
<clipPath id="clip0_6375_17390">
<rect width="130.954" height="32" rx="1.3776" fill="white"/>
</clipPath>
</defs>
</svg>
